<svg xmlns="http://www.w3.org/2000/svg" width="351.084" height="233.364" viewBox="0 0 351.084 233.364">
  <g id="Group_60" data-name="Group 60" transform="translate(-299.809 -1610.58)">
    <g id="Group_59" data-name="Group 59">
      <path id="Path_430" data-name="Path 430" d="M482.989,1671.848c-1.058.021-2.178.078-3.274.174.656-.262,1.446-.388,2.14-.611C482.258,1671.532,482.59,1671.724,482.989,1671.848Z" fill="#333" fill-rule="evenodd"/>
      <path id="Path_431" data-name="Path 431" d="M564.083,1673.418c.165-.034.055.207.086.306a.364.364,0,0,1-.261-.044C563.961,1673.588,564.029,1673.511,564.083,1673.418Z" fill="#333" fill-rule="evenodd"/>
      <path id="Path_432" data-name="Path 432" d="M483.687,1674.858c-.061.216-.025.528-.087.743a53.43,53.43,0,0,1-6.9-.131c.148-.285.548-.281.83-.349A16.549,16.549,0,0,1,483.687,1674.858Z" fill="#333" fill-rule="evenodd"/>
      <path id="Path_433" data-name="Path 433" d="M485.258,1688.17c-1.37-.07-2.843-.036-4.276-.043.261-.616.707-1.262,1.092-2.007.415-.81,1.061-1.977.523-2.837.135-.5.484-.682.48-1.179,0-.223-.18-.4-.219-.567a7.01,7.01,0,0,0-.087-.742c-.216-.6-.693-.854-1.31-1.135a4.155,4.155,0,0,0-.479-.262,2.246,2.246,0,0,0-2.008.7,2.825,2.825,0,0,0-.7,1.658,5.344,5.344,0,0,1,.043.873c-.076.33-1.129,1.086-1.4,1.353a6.326,6.326,0,0,0-1.92,2.924c.4-.112.6-.569.873-.873.68-.749,1.537-1.469,2.313-2.182.122-.112.276-.354.481-.3-.038.583-.544,1.611.479,1.484.083,1.3,1.52.5,1.921.043-.222.98-1.252,2.037-.7,3.1a29.262,29.262,0,0,0-6.067,1.049,61.472,61.472,0,0,0,1.484-6.9c.144-.8.189-1.661.393-2.357.072-.245.287-.45.3-.7.025-.354-.217-.725-.044-1.092a24.278,24.278,0,0,0,7.289-.567C484.5,1680.875,484.706,1684.694,485.258,1688.17Z" fill="#333" fill-rule="evenodd"/>
      <path id="Path_434" data-name="Path 434" d="M480.588,1681.405c.132.121-.062.285-.086.394C480.386,1681.695,480.581,1681.53,480.588,1681.405Z" fill="#333" fill-rule="evenodd"/>
      <path id="Path_435" data-name="Path 435" d="M468.412,1706.676c-.986-.582-.416-2.238-.219-3.491.373-2.368.881-5.113,1.4-7.246a25.776,25.776,0,0,1,3.1-1.047h.087C470.747,1698.245,469.735,1702.616,468.412,1706.676Z" fill="#333" fill-rule="evenodd"/>
      <path id="Path_436" data-name="Path 436" d="M488.226,1704.581c.51,1.093-.183,2.5-.479,3.361a18.5,18.5,0,0,0-2.575-.611,12.2,12.2,0,0,1,1.44-1.134C487.076,1705.611,487.237,1704.5,488.226,1704.581Z" fill="#333" fill-rule="evenodd"/>
      <path id="Path_437" data-name="Path 437" d="M467.582,1706.807c.235.159.36.426.655.524-.387.776-.178,2.15-1.135,2.357C467.223,1708.69,467.446,1707.79,467.582,1706.807Z" fill="#333" fill-rule="evenodd"/>
      <path id="Path_438" data-name="Path 438" d="M481.9,1708.466a9.961,9.961,0,0,1-1.309.612,7.6,7.6,0,0,1-1.351.522c-1.034.181-2.079-.08-3.232.088a17.95,17.95,0,0,1,1.965-1.266,3.924,3.924,0,0,1,1.527-.044C480.286,1708.415,481.091,1708.381,481.9,1708.466Z" fill="#333" fill-rule="evenodd"/>
      <path id="Path_439" data-name="Path 439" d="M475.744,1708.422c-1.651.517-2.781,1.554-4.8,1.7.11-.4.234-.786.349-1.179A37.466,37.466,0,0,1,475.744,1708.422Z" fill="#333" fill-rule="evenodd"/>
      <path id="Path_440" data-name="Path 440" d="M485.652,1709.251c-.945.646-2.909.149-4.365.349.437-.146,1.125-.959,1.615-.959A17.968,17.968,0,0,1,485.652,1709.251Z" fill="#333" fill-rule="evenodd"/>
      <path id="Path_441" data-name="Path 441" d="M470.027,1709.251c.076.243-.274.8-.393,1.136-.569.1-1.007.331-1.571.436.113-.368.2-.761.305-1.135A15.129,15.129,0,0,1,470.027,1709.251Z" fill="#333" fill-rule="evenodd"/>
      <path id="Path_442" data-name="Path 442" d="M467.408,1710.169c-.146.464-.077,1.145-.61,1.222a6.967,6.967,0,0,1,.174-1.048A2.5,2.5,0,0,1,467.408,1710.169Z" fill="#333" fill-rule="evenodd"/>
      <path id="Path_443" data-name="Path 443" d="M472.864,1710.779c-.73.157-1.455.32-2.227.437C471.086,1710.776,472.046,1710.85,472.864,1710.779Z" fill="#333" fill-rule="evenodd"/>
      <path id="Path_444" data-name="Path 444" d="M469.329,1711.172c-.111.646-.985.528-1.484.785-.115-.144.034-.4.087-.522C468.4,1711.346,468.842,1711.239,469.329,1711.172Z" fill="#333" fill-rule="evenodd"/>
      <path id="Path_445" data-name="Path 445" d="M483.426,1711.346c-.247.3-.767-.013-1.178.045C482.5,1711.191,483.089,1711.348,483.426,1711.346Z" fill="#333" fill-rule="evenodd"/>
      <path id="Path_446" data-name="Path 446" d="M485.346,1711.435a6.441,6.441,0,0,1-1.265.174C484.257,1711.313,484.945,1711.366,485.346,1711.435Z" fill="#333" fill-rule="evenodd"/>
      <path id="Path_447" data-name="Path 447" d="M467.016,1711.74c-.071.119-.063.316-.132.436a.372.372,0,0,1-.262-.044C466.72,1711.968,466.763,1711.748,467.016,1711.74Z" fill="#333" fill-rule="evenodd"/>
      <path id="Path_448" data-name="Path 448" d="M488.488,1712.089c-.015.144-.131.188-.217.261a5.741,5.741,0,0,1-.7-.131A2.081,2.081,0,0,1,488.488,1712.089Z" fill="#333" fill-rule="evenodd"/>
      <path id="Path_449" data-name="Path 449" d="M475.482,1712.176a8.95,8.95,0,0,1-1.44.829,10.029,10.029,0,0,1-1.4.83c-.852.3-1.794.209-2.75.523.872-.487,1.73-.867,2.62-1.266A5.923,5.923,0,0,1,475.482,1712.176Z" fill="#333" fill-rule="evenodd"/>
      <path id="Path_450" data-name="Path 450" d="M477.97,1712.307c-1.211.433-2.118,1.169-3.666,1.265a23.636,23.636,0,0,1,2.226-1.353C476.833,1712.084,477.473,1712.363,477.97,1712.307Z" fill="#333" fill-rule="evenodd"/>
      <path id="Path_451" data-name="Path 451" d="M469.416,1712.307c.131.065-.032.194-.131.174C469.246,1712.341,469.4,1712.39,469.416,1712.307Z" fill="#333" fill-rule="evenodd"/>
      <path id="Path_452" data-name="Path 452" d="M473.038,1712.307c-1.043.514-2.047,1.067-3.143,1.528.094-.349.516-.583.83-.786A3.37,3.37,0,0,1,473.038,1712.307Z" fill="#333" fill-rule="evenodd"/>
      <path id="Path_453" data-name="Path 453" d="M479.5,1712.437a1.534,1.534,0,0,1-.567.131C479.079,1712.5,479.308,1712.326,479.5,1712.437Z" fill="#333" fill-rule="evenodd"/>
      <path id="Path_454" data-name="Path 454" d="M482.509,1712.787c-.119.157-.429.123-.7.132C481.9,1712.733,482.245,1712.8,482.509,1712.787Z" fill="#333" fill-rule="evenodd"/>
      <path id="Path_455" data-name="Path 455" d="M466.622,1712.919c.123.153-.155.278-.175.435-.008.217.141.462-.13.481.075-.274.1-.6.174-.874C466.554,1712.965,466.615,1712.968,466.622,1712.919Z" fill="#333" fill-rule="evenodd"/>
      <path id="Path_456" data-name="Path 456" d="M469.285,1713.005c-.013.264-.2.358-.393.437C468.977,1713.25,468.962,1712.96,469.285,1713.005Z" fill="#333" fill-rule="evenodd"/>
      <path id="Path_457" data-name="Path 457" d="M468.455,1713.223c.178.092-.156.385-.131.612a10.26,10.26,0,0,1-1.222.741C467.162,1713.733,467.868,1713.537,468.455,1713.223Z" fill="#333" fill-rule="evenodd"/>
      <path id="Path_458" data-name="Path 458" d="M477.489,1714.707c.2.06-.286.263-.086.481.714.392,1.463-.322,2.226-.437a12.223,12.223,0,0,1,2.356.13c.793.043,1.568.06,2.314.175a80.4,80.4,0,0,1-6.591,9.907c-.32.417-.808.827-.873,1.4.38.131.609-.323.829-.523.736-.671,1.66-1.362,2.357-2.1.611-.643,1.119-1.452,1.7-2.181,1.676-2.1,3.517-4.273,5.368-6.2.815.057,1.514.231,2.313.3a23.139,23.139,0,0,1-1.7,2.62c-1.782,2.531-3.581,5.2-5.368,7.768a43.345,43.345,0,0,0-16.367,3.622c.984-4.281,1.92-8.612,3.1-12.7C471.032,1715.378,474,1714.784,477.489,1714.707Z" fill="#333" fill-rule="evenodd"/>
      <path id="Path_459" data-name="Path 459" d="M470.288,1715.188c.054.161-.576.546-.916.654a1.461,1.461,0,0,1,.131-.524A4.334,4.334,0,0,0,470.288,1715.188Z" fill="#333" fill-rule="evenodd"/>
      <path id="Path_460" data-name="Path 460" d="M468.586,1715.493c-.024.3-.166.474-.174.786a3.128,3.128,0,0,1-.7.3c.083-.369.247-.656.35-1C468.281,1715.595,468.368,1715.478,468.586,1715.493Z" fill="#333" fill-rule="evenodd"/>
      <path id="Path_461" data-name="Path 461" d="M467.538,1715.711c-.156.717-.394,1.351-1.047,1.571-.057-.436.233-.9.263-1.4C467.012,1715.824,467.257,1715.75,467.538,1715.711Z" fill="#333" fill-rule="evenodd"/>
      <path id="Path_462" data-name="Path 462" d="M494.163,1716.715a4.321,4.321,0,0,1-1.092,1.048,90.247,90.247,0,0,0-7.507,7.812c-.266-.4-1.086-.158-1.441,0a5.1,5.1,0,0,1,.743-1.222c1.921-2.73,3.932-5.577,5.8-8.424C491.941,1716.086,492.993,1716.459,494.163,1716.715Z" fill="#333" fill-rule="evenodd"/>
      <path id="Path_463" data-name="Path 463" d="M495.123,1717.326h.087c.387.792-.353,2.049-.742,2.836-1.085,2.194-2.33,4.39-3.535,6.329a26.011,26.011,0,0,0-5.02-.48,38.572,38.572,0,0,1,6.373-6.764A10.786,10.786,0,0,1,495.123,1717.326Z" fill="#333" fill-rule="evenodd"/>
      <path id="Path_464" data-name="Path 464" d="M464.963,1730.246c-.645.4-1.294.8-1.92,1.221,1.2-4.516,2.615-9.2,4.146-13.529.276-.1.534-.225.786-.349C466.995,1721.656,465.868,1725.954,464.963,1730.246Z" fill="#333" fill-rule="evenodd"/>
      <path id="Path_465" data-name="Path 465" d="M466.535,1718.243h.087c-.44,1.362-.95,2.657-1.353,4.059.159-1.238.614-2.558.873-3.842A2.4,2.4,0,0,1,466.535,1718.243Z" fill="#333" fill-rule="evenodd"/>
      <path id="Path_466" data-name="Path 466" d="M495.734,1720.075c.306.919.616,3.107.873,4.5a6.346,6.346,0,0,1,.261,1.44c-.068.29-.758.7-.96.874a5.356,5.356,0,0,1-.96.828c-.578-.177-1.086-.427-1.7-.567a.6.6,0,0,0-.175-.874,2.292,2.292,0,0,0-.829.088C493.28,1724.313,494.641,1722.213,495.734,1720.075Z" fill="#333" fill-rule="evenodd"/>
      <path id="Path_467" data-name="Path 467" d="M498.833,1726.272c.422,1.05-.35,2.256-.786,3.013-.091-.928-.275-1.761-.394-2.664A1.921,1.921,0,0,1,498.833,1726.272Z" fill="#333" fill-rule="evenodd"/>
      <path id="Path_468" data-name="Path 468" d="M497.392,1728.848c-.555-.129-1.117-.629-1.746-.829.4-.374.878-.664,1.309-1C497.277,1727.45,497.188,1728.3,497.392,1728.848Z" fill="#333" fill-rule="evenodd"/>
      <path id="Path_469" data-name="Path 469" d="M480.588,1728.411a13.2,13.2,0,0,1-2.487,2.314c-1.036,0-2.076-.01-3.056.044a14.413,14.413,0,0,1,2.577-1.4A7.78,7.78,0,0,1,480.588,1728.411Z" fill="#333" fill-rule="evenodd"/>
      <path id="Path_470" data-name="Path 470" d="M482.815,1728.673c.124.207-.173.369-.306.525a17.633,17.633,0,0,1-1.4,1.571h-.742A7.7,7.7,0,0,1,482.815,1728.673Z" fill="#333" fill-rule="evenodd"/>
      <path id="Path_471" data-name="Path 471" d="M474.653,1728.848c.092.5-.354.8-.654,1.135-.218.243-.612.812-.961.917a9.361,9.361,0,0,1-1.44.087c-1.282.121-2.783.362-4.06.48,1.9-.971,3.877-2.414,6.417-2.663C474.157,1728.785,474.445,1728.682,474.653,1728.848Z" fill="#333" fill-rule="evenodd"/>
      <path id="Path_472" data-name="Path 472" d="M465.531,1731.816a1.481,1.481,0,0,1,.131-.655c1.5-.623,3-1.248,4.626-1.746-1.013.564-1.972,1.116-3.011,1.7A3.731,3.731,0,0,1,465.531,1731.816Z" fill="#333" fill-rule="evenodd"/>
      <path id="Path_473" data-name="Path 473" d="M487.659,1729.721a2.868,2.868,0,0,1-.785.743,3.092,3.092,0,0,1-.873.61c-.782.169-1.58-.3-2.531-.174A10.872,10.872,0,0,1,487.659,1729.721Z" fill="#333" fill-rule="evenodd"/>
      <path id="Path_474" data-name="Path 474" d="M497.523,1730.376c-.125.182-.215.4-.349.567a28.458,28.458,0,0,0-2.881,1.135c-.495.222-.907.553-1.483.262.321-.195.728-.7,1.134-.785.546-.116.963.1,1.353,0C495.86,1731.408,496.79,1730.611,497.523,1730.376Z" fill="#333" fill-rule="evenodd"/>
      <path id="Path_475" data-name="Path 475" d="M488.533,1730.507c.086.181-.335.593-.438.872a4.271,4.271,0,0,0-.654-.087C487.71,1730.936,488.224,1730.825,488.533,1730.507Z" fill="#333" fill-rule="evenodd"/>
      <path id="Path_476" data-name="Path 476" d="M464.745,1730.856c.042,0,.034.053.044.087a8.632,8.632,0,0,1-1.964,1.048A7.719,7.719,0,0,1,464.745,1730.856Z" fill="#333" fill-rule="evenodd"/>
      <path id="Path_477" data-name="Path 477" d="M464.527,1732.035a12.986,12.986,0,0,0-1.572.391,6.072,6.072,0,0,1,1.66-.74A.682.682,0,0,1,464.527,1732.035Z" fill="#333" fill-rule="evenodd"/>
      <path id="Path_478" data-name="Path 478" d="M497.916,1732.383a31.78,31.78,0,0,1,.61,3.535c-.093.083-.278.072-.348.176-.643-.624-1.977-.556-2.925-.874A8.331,8.331,0,0,1,497.916,1732.383Z" fill="#333" fill-rule="evenodd"/>
      <path id="Path_479" data-name="Path 479" d="M475.439,1732.645a9.839,9.839,0,0,1-1.528,1.047,10.176,10.176,0,0,1-1.527,1.048,17.127,17.127,0,0,1-2.489.524c-.821.187-1.583.419-2.4.611,1.49-1.019,3.16-2.154,4.714-3.142C472.869,1732.313,474.365,1732.861,475.439,1732.645Z" fill="#333" fill-rule="evenodd"/>
      <path id="Path_480" data-name="Path 480" d="M470.507,1732.733c-2.055,1.306-4.02,2.7-6.111,3.972.122-.709.323-1.337.437-2.052a12.622,12.622,0,0,0,1.877-1.179c-.426-.179-.978.236-1.615.131.014-.174.118-.259.174-.392Q467.8,1732.881,470.507,1732.733Z" fill="#333" fill-rule="evenodd"/>
      <path id="Path_481" data-name="Path 481" d="M482.989,1733a4.3,4.3,0,0,1-1.876.305c-.66.064-1.35.184-1.965.217.156-.31.461-.469.655-.741C480.873,1732.841,481.932,1732.916,482.989,1733Z" fill="#333" fill-rule="evenodd"/>
      <path id="Path_482" data-name="Path 482" d="M463.567,1733.431c-.378.514-1.424.945-1.091,1.745.471.11.9-.124,1.4-.13-.173.64-.3,1.334-.48,1.964-.648.21-1.309.407-1.963.611.285-1.344.612-2.646.916-3.971C462.742,1733.567,463.155,1733.5,463.567,1733.431Z" fill="#333" fill-rule="evenodd"/>
      <path id="Path_483" data-name="Path 483" d="M477.01,1733.65c.194.095-.182.327-.437.261C476.683,1733.788,476.9,1733.773,477.01,1733.65Z" fill="#333" fill-rule="evenodd"/>
      <path id="Path_484" data-name="Path 484" d="M480.5,1734.61c-.6.807-2.287.535-3.449.785C477.63,1734.561,479.233,1734.753,480.5,1734.61Z" fill="#333" fill-rule="evenodd"/>
      <path id="Path_485" data-name="Path 485" d="M486.131,1734.7c-.443.4-1.655.032-2.313.218C484.218,1734.425,485.411,1734.637,486.131,1734.7Z" fill="#333" fill-rule="evenodd"/>
      <path id="Path_486" data-name="Path 486" d="M492.286,1734.958c-.144.626-1.13-.04-1.789.044A10.676,10.676,0,0,1,492.286,1734.958Z" fill="#333" fill-rule="evenodd"/>
      <path id="Path_487" data-name="Path 487" d="M476.312,1735.046c0,.184-.083.28.043.393-1.37.258-2.811.448-4.19.7C473.139,1735.365,474.749,1735.227,476.312,1735.046Z" fill="#333" fill-rule="evenodd"/>
      <path id="Path_488" data-name="Path 488" d="M470.246,1736.094c-.524.779-2.206.941-3.448,1.221-.915.207-1.8.422-2.62.569C465.756,1736.842,468.214,1736.681,470.246,1736.094Z" fill="#333" fill-rule="evenodd"/>
      <path id="Path_489" data-name="Path 489" d="M484.56,1737.228c-1.317,2.26-2.771,4.4-4.233,6.546a7.168,7.168,0,0,0-1.266,2.227c.545.045.853-.551,1.134-.874,2.187-2.5,4.388-5.239,6.547-7.812a6.3,6.3,0,0,1,2.968.787c.139.1.211.284.35.392.17.134.43.121.61.262a4.157,4.157,0,0,1,.568.742c-2.014,2.772-4.22,5.351-6.2,8.161-7.153-.355-13.272.2-18.112,2.095a27.306,27.306,0,0,0-3.492,1.615,5.6,5.6,0,0,1-2.4.916c-.177.034-.007-.282-.217-.217a7.016,7.016,0,0,0-2.227,1.571c.1.35.766.277,1.135.218a.818.818,0,0,0,.481,1.048c-.989.51-1.8,1.2-2.794,1.7a17.686,17.686,0,0,0,1.877-1.353c-.575-.069-1.287.45-1.877.654.43-3.323,1.315-6.569,1.921-9.863.575.019.609-.98.741-1.7.256-1.408.611-3.17.873-4.453.621-.106,1.18-.275,1.834-.349-.787,3.5-1.761,6.944-2.75,10.388-.033.114-.55,1.259-.044,1.4.454.124.693-.921.785-1.222,1.08-3.481,2.1-7.165,3.012-10.78A80.359,80.359,0,0,1,484.56,1737.228Z" fill="#333" fill-rule="evenodd"/>
      <path id="Path_490" data-name="Path 490" d="M462.389,1738.1c.064.243-.7.4-1.135.436C461.509,1738.27,462.055,1738.292,462.389,1738.1Z" fill="#333" fill-rule="evenodd"/>
      <path id="Path_491" data-name="Path 491" d="M498.963,1738.624c.3,1.437.735,3.742,1.048,5.5a7.894,7.894,0,0,1,.349,1.79c-.049.176-.672.565-.916.741-.991.716-1.894,1.408-2.794,2.139-1.194-.144-2.41-.267-3.579-.435C495.067,1745.145,497.194,1742.064,498.963,1738.624Z" fill="#333" fill-rule="evenodd"/>
      <path id="Path_492" data-name="Path 492" d="M496.607,1739.061a1.693,1.693,0,0,1-.088,1.44,20.324,20.324,0,0,1-1.877,3.4c-.9,1.471-1.789,2.927-2.7,4.321a52.928,52.928,0,0,0-5.631-.479c-.014-.3.31-.425.48-.611,1.243-1.366,2.557-2.8,3.972-4.1a19.164,19.164,0,0,1,5.325-3.885A1.439,1.439,0,0,1,496.607,1739.061Z" fill="#333" fill-rule="evenodd"/>
      <path id="Path_493" data-name="Path 493" d="M491.587,1739.978c.231.191.356.489.611.655-1.469,1.6-3.051,3.087-4.495,4.713A62.678,62.678,0,0,1,491.587,1739.978Z" fill="#333" fill-rule="evenodd"/>
      <path id="Path_494" data-name="Path 494" d="M501.276,1750.321c.327.983.509,2.112.787,3.144-.683-.279-1.457-.464-2.183-.7C500.3,1751.906,500.842,1751.167,501.276,1750.321Z" fill="#333" fill-rule="evenodd"/>
      <path id="Path_495" data-name="Path 495" d="M498.745,1751.151c.127.307-.331.771-.393,1.178-1-.195-1.9-.48-2.923-.654C496.43,1751.4,498.182,1751.869,498.745,1751.151Z" fill="#333" fill-rule="evenodd"/>
      <path id="Path_496" data-name="Path 496" d="M468.5,1751.849c.216.024-.045.023-.044.088-1.472.387-3.206.9-4.756,1.484-.705.263-1.726,1.034-2.052.044C463.842,1752.837,466.132,1752.305,468.5,1751.849Z" fill="#333" fill-rule="evenodd"/>
      <path id="Path_497" data-name="Path 497" d="M476.661,1752.853a77.3,77.3,0,0,0-13.618,2.881,12.31,12.31,0,0,1-4.539.873,8.853,8.853,0,0,1,1.7-.786,9.023,9.023,0,0,1,1.746-.7c.158-.029.33.04.479,0,.352-.1.644-.4,1-.524A30.036,30.036,0,0,1,476.661,1752.853Z" fill="#333" fill-rule="evenodd"/>
      <path id="Path_498" data-name="Path 498" d="M531.96,1761.1c.111,0,.053.033.043.087a12.707,12.707,0,0,1-3.928,2.1,8.252,8.252,0,0,1,1.877-1.178C530.606,1761.755,531.318,1761.462,531.96,1761.1Z" fill="#333" fill-rule="evenodd"/>
      <path id="Path_499" data-name="Path 499" d="M546.8,1763.983c-12.488,7.079-24.962,14.171-35.832,22.87-.17-.018-.119-.259-.349-.218a15.16,15.16,0,0,1-1.615,1.048c-.111-1.257-.221-2.515-.349-3.755.037-.142.307,0,.437-.131,6.695-5.148,13.316-10.608,20.425-15.537a23.381,23.381,0,0,1,4.54-2.663c3.307-1.328,6.856-2.5,10.562-3.8.369-.131.913.7,1.222,1.047C546.192,1763.247,546.537,1763.62,546.8,1763.983Z" fill="#333" fill-rule="evenodd"/>
      <path id="Path_500" data-name="Path 500" d="M529.079,1763.2c.111,0,.053.034.044.088a79.588,79.588,0,0,1-8.293,3.972A84.459,84.459,0,0,1,529.079,1763.2Z" fill="#333" fill-rule="evenodd"/>
      <path id="Path_501" data-name="Path 501" d="M505.467,1766.6c.033.165-.054.209-.044.35a29.856,29.856,0,0,1-3.623.48c.081-.337.513-.255.786-.305.863-.161,1.913-.365,2.793-.525Z" fill="#333" fill-rule="evenodd"/>
      <path id="Path_502" data-name="Path 502" d="M477.664,1767.868c-1.713.875-3.278,1.9-5.019,2.749a34.28,34.28,0,0,0,4.059-3.4C477.025,1767.43,477.438,1767.555,477.664,1767.868Z" fill="#333" fill-rule="evenodd"/>
      <path id="Path_503" data-name="Path 503" d="M528.73,1767.824c.111,0,.053.032.042.087-7.062,4.807-13.521,10.454-20.162,15.538-.073-.336-.059-.759-.132-1.092a13.732,13.732,0,0,0,2.751-2.226c-1.125.377-1.868,1.363-2.794,1.79.082-.351-.206-.849-.088-1.223.072-.227.87-.648,1.222-.872C515.829,1775.845,522.216,1771.4,528.73,1767.824Z" fill="#333" fill-rule="evenodd"/>
      <path id="Path_504" data-name="Path 504" d="M471.118,1768.521c-.134.187-.369.273-.525.437C470.437,1768.654,470.739,1768.435,471.118,1768.521Z" fill="#333" fill-rule="evenodd"/>
      <path id="Path_505" data-name="Path 505" d="M479.629,1768.7c.178.008-.047.244.13.3a5.462,5.462,0,0,1,1,.045c-.825.425-1.737.766-2.618,1.135C478.6,1769.646,479.184,1769.241,479.629,1768.7Z" fill="#333" fill-rule="evenodd"/>
      <path id="Path_506" data-name="Path 506" d="M463.262,1768.871a.978.978,0,0,1-.524.262C462.748,1768.881,463.068,1768.94,463.262,1768.871Z" fill="#333" fill-rule="evenodd"/>
      <path id="Path_507" data-name="Path 507" d="M461.123,1769.744c.329.023.417-.193.7-.218a19.136,19.136,0,0,1-2.837,1.833c-2.882,1.727-5.78,3.542-8.728,5.237a.364.364,0,0,0-.219-.568c-.422-.081-1.371.915-1.659,1.135-.644.5-1.148.837-1.615,1.135,3.156-2.9,6.948-5.156,10.389-7.768,1.331-.3,2.557-.7,3.839-1.048C461.163,1769.443,461.024,1769.712,461.123,1769.744Z" fill="#333" fill-rule="evenodd"/>
      <path id="Path_508" data-name="Path 508" d="M498,1770.573c.01.228-.107.33-.132.524a3.846,3.846,0,0,1-.786-.393A5.866,5.866,0,0,1,498,1770.573Z" fill="#333" fill-rule="evenodd"/>
      <path id="Path_509" data-name="Path 509" d="M487.529,1770.879a9.773,9.773,0,0,1-4.278,2.618,20.329,20.329,0,0,0,3.23-2.88C486.85,1770.685,487.188,1770.783,487.529,1770.879Z" fill="#333" fill-rule="evenodd"/>
      <path id="Path_510" data-name="Path 510" d="M488.838,1771.228c1.187.311,2.3.692,3.4,1.091-1.674,1.466-3.645,2.745-5.5,4.1a21.551,21.551,0,0,1-1.832,1.354c-.763.434-1.668.676-2.488,1.046-2.4,1.083-4.735,2.292-7.2,3.317,3.415-2.564,6.568-5.523,10.213-7.9a18.137,18.137,0,0,0,3.447-2.574c-.053-.172-.182-.169-.348-.132A1.2,1.2,0,0,1,488.838,1771.228Z" fill="#333" fill-rule="evenodd"/>
      <path id="Path_511" data-name="Path 511" d="M454.009,1771.447a4.156,4.156,0,0,1-1.354.872v-.436A4.431,4.431,0,0,1,454.009,1771.447Z" fill="#333" fill-rule="evenodd"/>
      <path id="Path_512" data-name="Path 512" d="M473.692,1771.665c.112,0,.054.032.045.086-.6.466-1.237.888-1.877,1.31-.036.152.064.168.043.3-1.11.911-2.018,2.028-3.055,3.011.193-.838.4-1.664.611-2.487A21.227,21.227,0,0,0,473.692,1771.665Z" fill="#333" fill-rule="evenodd"/>
      <path id="Path_513" data-name="Path 513" d="M556.881,1772.056a6.9,6.9,0,0,1,2.313,1.616,3.265,3.265,0,0,0-.567,1.572c-.394-.414-.3-1.026-.524-1.484C557.831,1773.19,557.187,1772.664,556.881,1772.056Z" fill="#333" fill-rule="evenodd"/>
      <path id="Path_514" data-name="Path 514" d="M447.724,1772.886c-.581.409-1.266.715-1.834,1.135.1-.393.706-.661.918-1.091C447.16,1772.963,447.395,1772.878,447.724,1772.886Z" fill="#333" fill-rule="evenodd"/>
      <path id="Path_515" data-name="Path 515" d="M563.471,1775.811a1.164,1.164,0,0,1-.786.829,6.7,6.7,0,0,1-.218-.742A6.026,6.026,0,0,1,563.471,1775.811Z" fill="#333" fill-rule="evenodd"/>
      <path id="Path_516" data-name="Path 516" d="M561.508,1784.1a15.188,15.188,0,0,1,1.4,1.614,18.032,18.032,0,0,0-2.706,1.746c-.127-.542-.189-1.15-.306-1.7C560.533,1785.311,560.92,1784.607,561.508,1784.1Z" fill="#333" fill-rule="evenodd"/>
      <path id="Path_517" data-name="Path 517" d="M564.781,1787.856c-1.278.964-2.547,1.935-3.928,2.794-.176-.827-.358-1.65-.524-2.488a.835.835,0,0,0,.349-.479q1.326-.7,2.706-1.354A8.594,8.594,0,0,1,564.781,1787.856Z" fill="#333" fill-rule="evenodd"/>
      <path id="Path_518" data-name="Path 518" d="M504.376,1787.944a6.489,6.489,0,0,1,.348,1.571C503.863,1789.531,504.223,1788.457,504.376,1787.944Z" fill="#333" fill-rule="evenodd"/>
      <path id="Path_519" data-name="Path 519" d="M566.657,1790.039a49.166,49.166,0,0,0-5.368,2.357,6.452,6.452,0,0,1-.261-.961c1.324-1.118,2.749-2.138,4.058-3.273A15.03,15.03,0,0,1,566.657,1790.039Z" fill="#333" fill-rule="evenodd"/>
      <path id="Path_520" data-name="Path 520" d="M570.76,1794.447c-2.86,1.257-5.386,2.849-8.249,4.1-.108-.227-.065-.6-.175-.83,1.99-1.967,4.188-3.726,6.154-5.717C569.239,1792.827,570.047,1793.589,570.76,1794.447Z" fill="#333" fill-rule="evenodd"/>
      <path id="Path_521" data-name="Path 521" d="M566.876,1792.135a11.344,11.344,0,0,1-2.269,2.443,18.431,18.431,0,0,1-2.446,2.139,7.227,7.227,0,0,0-.174-.961c.977-.8,2.259-1.29,3.187-2.138-.285-.109-.6.106-.873.219a16.893,16.893,0,0,0-2.445,1.221c-.115-.409-.17-.878-.3-1.265A15.082,15.082,0,0,1,566.876,1792.135Z" fill="#333" fill-rule="evenodd"/>
      <path id="Path_522" data-name="Path 522" d="M503.241,1793.051a2.879,2.879,0,0,1,.174.479c-1.725,1.23-3.354,2.672-5.019,4.016a1.676,1.676,0,0,1-.743.437c-.063-.653,1.226-.682.961-1.4C500.222,1795.474,501.711,1794.242,503.241,1793.051Z" fill="#333" fill-rule="evenodd"/>
      <path id="Path_523" data-name="Path 523" d="M503.851,1794.185c-.11.253-.474.942,0,1.222-1.25,1.193-2.673,2.215-4.014,3.318a5.233,5.233,0,0,0-.874-.393C500.147,1796.5,502.206,1795.551,503.851,1794.185Z" fill="#333" fill-rule="evenodd"/>
      <path id="Path_524" data-name="Path 524" d="M574.775,1798.593a45.4,45.4,0,0,0-9.427,1.964c-.029-.16.178-.23.262-.305.833-.753,1.744-1.551,2.663-2.314,1.084-.9,2.215-1.829,3.185-2.749C572.638,1796.25,573.7,1797.425,574.775,1798.593Z" fill="#333" fill-rule="evenodd"/>
      <path id="Path_525" data-name="Path 525" d="M428.214,1796.061c.112,0,.054.034.044.088-.93.583-1.795,1.231-2.793,1.745a4.35,4.35,0,0,1,.218-.785C426.506,1796.74,427.395,1796.435,428.214,1796.061Z" fill="#333" fill-rule="evenodd"/>
      <path id="Path_526" data-name="Path 526" d="M495.167,1796.848c.11,0,.053.032.043.087-.526.185-1.01,1.029-1.571,1.222-.655.223-1.355.006-2.138.218C492.665,1797.809,494.1,1797.509,495.167,1796.848Z" fill="#333" fill-rule="evenodd"/>
      <path id="Path_527" data-name="Path 527" d="M425.2,1801.561c1.2-1.589,2.086-3.5,3.884-4.495.036.008.044.043.087.043a8.934,8.934,0,0,1-.829,2.881C427.231,1800.447,426.258,1801.045,425.2,1801.561Z" fill="#333" fill-rule="evenodd"/>
      <path id="Path_528" data-name="Path 528" d="M562.817,1801.3c-.043-.394-.07-.8-.132-1.179a38.321,38.321,0,0,1,5.02-2.488c-.983.89-2.07,1.733-3.143,2.619C564.019,1800.7,563.668,1801.2,562.817,1801.3Z" fill="#333" fill-rule="evenodd"/>
      <path id="Path_529" data-name="Path 529" d="M493.421,1798.245c.059.107-.226.221-.263.436-.074.43.317,1.094.393,1.44a54.543,54.543,0,0,0-9.209,11.435c-.378.586-.718,1.27-1.134,1.789a12.476,12.476,0,0,1-1.311,1.223c-.438.4-.9.772-1.309,1.178a16.3,16.3,0,0,0-2.4,2.575c.33.2.679-.14.917-.306.766-.53,1.566-1.189,2.314-1.746-1.3,2.51-2.838,5.166-4.191,7.77-3.181.312-6.314.669-9.427,1.047-.123-.094.179-.206.3-.306,2.127-1.661,4.4-3.386,6.591-5.062a65.964,65.964,0,0,0,5.106-4.19,4.121,4.121,0,0,0,1.353-1.659c-.425-.253-.924.131-1.309.3-.417.19-.872.4-1.266.612-1.433.787-3,1.41-3.842,2.75,1.715-.659,3.076-1.668,4.846-2.27a75.009,75.009,0,0,1-6.285,5.019c-2.119,1.639-4.307,3.2-6.372,4.889-2.47.278-4.911.589-7.376.872-.058-.163.6-.518.7-.829-.576.139-.9.71-1.486.917a15.741,15.741,0,0,1-1.744.218c-.1-.072.135-.277.261-.392a118.573,118.573,0,0,1,14.4-11.218c4.627-3.1,9.495-5.81,13.879-9.253.427-.334,1.717-1.185,1.572-1.7-.127-.451-1.517-.065-1.746,0a94.186,94.186,0,0,0-10.824,4.234c-4.133,1.73-7.82,3.646-11.916,5.282-.2-.113.44-.245.263-.482a7.977,7.977,0,0,0-1.484.787c.457-.881.93-1.746,1.4-2.619,3.67-2.7,8.21-5.089,12.352-7.595a12.613,12.613,0,0,1,1.79-1.047c.038-.015.125-.041.13-.044,1.208-.293,2.452-.474,3.666-.742,2.377-.521,4.676-1.148,6.94-1.876,1.071-.345,2.132-.839,3.23-1.135C491.733,1798.334,492.611,1798.391,493.421,1798.245Z" fill="#333" fill-rule="evenodd"/>
      <path id="Path_530" data-name="Path 530" d="M469.416,1799.6c.44.374.949.679,1.4,1.046-.657.173-1.482.177-2.182.306C468.874,1800.482,469.145,1800.04,469.416,1799.6Z" fill="#333" fill-rule="evenodd"/>
      <path id="Path_531" data-name="Path 531" d="M573.466,1799.728c.077.142-.179.241-.3.349a5.946,5.946,0,0,0-1.223,1.179c.364.095.678-.219,1.136-.175a4.854,4.854,0,0,1-1.266,1.659,14.5,14.5,0,0,1-1.441,1.571c-1.157.948-2.535,1.728-3.8,2.619s-2.495,1.808-3.752,2.619c.093-.788.138-1.595.174-2.4a4.705,4.705,0,0,1,0-1.048c.077-.259.574-.513.874-.743a22.289,22.289,0,0,0,2.531-2.182,7.16,7.16,0,0,0-1.659.916,16.005,16.005,0,0,1-1.746.917c.121-.7-.241-1.478-.087-2.138a4.228,4.228,0,0,1,1.265-1.31,12.534,12.534,0,0,1,2.052-.568A31.194,31.194,0,0,1,573.466,1799.728Z" fill="#333" fill-rule="evenodd"/>
      <path id="Path_532" data-name="Path 532" d="M477.577,1800.077c.071.06-.52.32-.786.394-1.031.282-2.39.314-3.447.522C474.215,1800.149,476.187,1800.405,477.577,1800.077Z" fill="#333" fill-rule="evenodd"/>
      <path id="Path_533" data-name="Path 533" d="M579.75,1803.351c-6.73,3.584-12.138,8.491-18.418,12.527a5.345,5.345,0,0,1,1.659-2.882c1.985-2.169,3.924-4.228,5.979-6.285.83-.829,1.6-1.751,2.445-2.444.831-.679,1.774-1.23,2.618-1.877a32.8,32.8,0,0,0,2.488-2.182c.543.5,1.107,1.041,1.658,1.572A10.744,10.744,0,0,1,579.75,1803.351Z" fill="#333" fill-rule="evenodd"/>
      <path id="Path_534" data-name="Path 534" d="M416.474,1800.776c.077-.012.089.041.044.044-1.449,1.417-3.04,2.876-4.452,4.407-.1.112-.239.2-.35.306-.062.057-.127.274-.262.175a12.4,12.4,0,0,0,1.092-3.013C413.879,1802.08,415.171,1801.422,416.474,1800.776Z" fill="#333" fill-rule="evenodd"/>
      <path id="Path_535" data-name="Path 535" d="M471.118,1800.906c-.233.351-.666.482-1,.7s-.66.475-1,.7a9.005,9.005,0,0,0-2.008,1.4c.181.432,1.115.148,1.528.131a16.34,16.34,0,0,1-2.269.96c.677-1.243,1.422-2.419,2.138-3.622C469.359,1801.095,470.315,1800.891,471.118,1800.906Z" fill="#333" fill-rule="evenodd"/>
      <path id="Path_536" data-name="Path 536" d="M427.821,1800.95c.075-.015.083.034.088.089-1.773,1.79-3.667,3.46-5.587,5.106.305-.581.69-1.093,1.047-1.66a8.787,8.787,0,0,1,1-1.658,8.586,8.586,0,0,1,1.658-.916C426.654,1801.569,427.255,1801.194,427.821,1800.95Z" fill="#333" fill-rule="evenodd"/>
      <path id="Path_537" data-name="Path 537" d="M557.273,1800.993c.075-.015.083.035.088.088-.911.858-1.789,1.894-2.837,2.75-5.857,4.79-11.81,9.379-17.633,14.315-.4.341-.768.727-1.266,1.179-.4.364-1.108.889-1,1.44.169.892,1.383.027,1.789-.218a66.287,66.287,0,0,0,7.246-5.063c.35-.282.9-.523.96-1.047-.32-.3-.666.11-.875.261a65.623,65.623,0,0,1-5.759,3.929c6.373-5.411,13.192-10.609,19.64-15.8q.128.741.218,1.616a5.651,5.651,0,0,1,.132,1.658c-.07.215-.9.6-1.223.785-2.612,1.456-4.773,3.013-7.376,4.54-.422.246-1.1.483-1.091.873.014.991,1.686-.161,2.007-.35a10.342,10.342,0,0,1,1.572-.873c-4.059,3.236-8.132,6.391-12.046,9.951-.431.392-1.353,1.142-1.353,1.788,0,1.2,1.326.721,1.963.4,2.683-1.372,5.038-3.184,7.595-4.714,3.119-1.866,6.03-3.432,9.122-4.976q-16.107,11.346-31.163,23.744c-2.376-.035-4.617.067-6.983.043a24.043,24.043,0,0,1,1.483-2.05c.392-.568,1.667-2.322.743-2.926-.826-.537-2.332.374-3.1.437a15.027,15.027,0,0,1-1.005-2.007c-.971-1.929-2.2-3.832-3.186-5.675,4.141-.2,8.258-.414,12.4-.611a4.336,4.336,0,0,0,.524-1c-4.469.28-9,.781-13.269,1.048a27.8,27.8,0,0,1-2.05-3.536c5.145-.436,9.924-.771,15.1-1.09.033.139-.2.308-.349.436-.445.383-1.24.856-1.353,1.44.492.144.93-.261,1.308-.48,2.8-1.614,5.5-3.488,8.25-5.238,1.574-1,3.149-2,4.713-3.011a37.995,37.995,0,0,0,4.626-3.1c-4.744,2.729-9.2,5.6-13.791,8.511a4.7,4.7,0,0,1-2.1,1.091c-.038-.155.164-.267.262-.349,2.07-1.715,4.406-3.476,6.59-5.107.69.433,1.412-.11,2.095-.567,3.028-2.027,5.985-4.282,9.079-6.2,1.792-1.11,3.658-2.182,5.5-3.23C553.407,1802.99,555.375,1801.9,557.273,1800.993Z" fill="#333" fill-rule="evenodd"/>
      <path id="Path_538" data-name="Path 538" d="M463.3,1810.159c.756-1.469,1.566-2.886,2.4-4.276,1.529-.582,2.931-1.223,4.408-1.877a11.765,11.765,0,0,1,1.44-.612c1.094-.31,2.371-.337,3.623-.7h.086C471.189,1805.095,467.08,1807.461,463.3,1810.159Z" fill="#333" fill-rule="evenodd"/>
      <path id="Path_539" data-name="Path 539" d="M498.614,1803.264c2.691,3.448,3.83,8.449,5.674,12.744-2,.777-3.733,1.825-5.586,2.75C498.786,1813.626,499.011,1808.132,498.614,1803.264Z" fill="#333" fill-rule="evenodd"/>
      <path id="Path_540" data-name="Path 540" d="M423.02,1803.656c.078-.013.09.042.044.044-1.092,1.555-1.915,3.613-3.317,4.714.692-1.562,1.487-3.023,2.225-4.539A.9.9,0,0,0,423.02,1803.656Z" fill="#333" fill-rule="evenodd"/>
      <path id="Path_541" data-name="Path 541" d="M494.337,1804.18a23.326,23.326,0,0,1,.175,3.318,52.914,52.914,0,0,0-5.892,3.23c.4-.606.745-1.239,1.134-1.833a14.888,14.888,0,0,1,1.179-1.746,18.986,18.986,0,0,1,1.658-1.441C493.19,1805.182,493.809,1804.689,494.337,1804.18Z" fill="#333" fill-rule="evenodd"/>
      <path id="Path_542" data-name="Path 542" d="M580.581,1804.573a4.008,4.008,0,0,1-1.092,2.444,57.339,57.339,0,0,1-4.19,4.8,5.753,5.753,0,0,1-.873.917,10.244,10.244,0,0,1-1.7.479c-3.949,1.106-7.781,2.405-11.436,3.8,5.174-3.83,10.155-8.132,16.149-11.347A6.7,6.7,0,0,1,580.581,1804.573Z" fill="#333" fill-rule="evenodd"/>
      <path id="Path_543" data-name="Path 543" d="M485.084,1805.184c.062.4-.383.607-.61.785-2.022,1.582-4.4,2.942-6.635,4.366a152.515,152.515,0,0,0-18.2,13.18c-.494.427-1.065.971-1.659,1.484a10.067,10.067,0,0,1-1.658,1.44c-.506.2-1.221.078-1.7.218-.058-.154.129-.456.261-.7,1.931-3.534,3.818-7.456,5.806-10.955,4.047-1.466,7.77-3.5,11.784-5.195,2.86-1.207,5.951-2.491,9.078-3.622A15,15,0,0,1,485.084,1805.184Z" fill="#333" fill-rule="evenodd"/>
      <path id="Path_544" data-name="Path 544" d="M585.206,1808.588h-.479c.654-.055.916.3,1.31.7a6.244,6.244,0,0,0,2.224,1.746,19.782,19.782,0,0,0-1.57-2.444c13.547-.307,27.507-.436,41.681-.436a7.625,7.625,0,0,1,2.619.174c-.716,1.845-1.772,3.728-2.663,5.543-9.867,1.218-20.716,2.323-31.031,3.361a10.061,10.061,0,0,1-2.051.218c-.261-.066-.546-.621-.787-.916a51.8,51.8,0,0,0-4.8-5.413c-.246-.228-.567-.694-1-.479a3.465,3.465,0,0,0,.655,1.876,13.493,13.493,0,0,0,1.441,2.619,37.212,37.212,0,0,0-5.849,2.618,12.944,12.944,0,0,1-1.79,1.005,13.707,13.707,0,0,1-2.574.3c-.861.092-1.723.17-2.619.262-.081-.179.194-.321.3-.437.388-.4.881-.994,1.309-1.352.958-.8,2.186-1.419,3.274-2.182a29.474,29.474,0,0,0,3.054-2.4c-.38-.505-.809-.962-1.177-1.483.147-.316.638-1.247.044-1.484-.386-.153-.995.257-1.353.436-.449.227-.857.545-1.179.655a12.483,12.483,0,0,1-1.614.262c-1.5.267-3.309.672-4.628,1-.1-.2.168-.287.263-.393,1.883-2.109,3.925-4.4,5.762-6.591C583.05,1806.41,584.3,1807.517,585.206,1808.588Z" fill="#333" fill-rule="evenodd"/>
      <path id="Path_545" data-name="Path 545" d="M494.512,1808.588a5.15,5.15,0,0,1,.042,1.266c-.1.41-.918,1.008-1.308,1.4-3.072,3.071-7.015,5.668-10.083,8.6,1.134-2.017,2.394-4.043,3.623-6.11a10.45,10.45,0,0,1,1.222-2.008,7.974,7.974,0,0,1,1.528-.873,25.463,25.463,0,0,1,4.932-2.27Z" fill="#333" fill-rule="evenodd"/>
      <path id="Path_546" data-name="Path 546" d="M558.1,1811.949a160.182,160.182,0,0,0-14.49,7.987c-.093-.041.149-.251.261-.349,3.919-3.368,8.212-6.558,12.309-9.907a5.3,5.3,0,0,1,.873-.656c.333-.144.729-.061.96-.261.037-.007.041.017.043.044C558.161,1809.766,558.074,1810.916,558.1,1811.949Z" fill="#333" fill-rule="evenodd"/>
      <path id="Path_547" data-name="Path 547" d="M494.512,1810.9c.106,2.141.026,5.367,0,7.856a12.794,12.794,0,0,1,0,2.575,4.916,4.916,0,0,1-1.483,1.092,10.691,10.691,0,0,1-1.528.129c-3.4.311-7.018.717-10.388,1.048-.063-.256.18-.477.306-.7a8.77,8.77,0,0,1,1.875-2.226c2.564-2.364,5.175-4.717,7.9-6.939C492.356,1812.791,493.5,1811.85,494.512,1810.9Z" fill="#333" fill-rule="evenodd"/>
      <path id="Path_548" data-name="Path 548" d="M581.279,1815.834c.892-1.2,2.187-2.393,3.056-3.8a.213.213,0,0,0,.042-.131c1.124.061.382,1.058-.042,1.483A35.22,35.22,0,0,1,581.279,1815.834Z" fill="#333" fill-rule="evenodd"/>
      <path id="Path_549" data-name="Path 549" d="M568.578,1820.285c-.031-.2.188-.27.3-.392,2.03-2.114,4.16-4.452,6.155-6.635,1.794-.43,3.61-.841,5.543-1.135-2.849,2.16-5.593,4.449-8.337,6.9-.386.345-.791.874-1.135,1C570.353,1820.31,569.324,1820.08,568.578,1820.285Z" fill="#333" fill-rule="evenodd"/>
      <path id="Path_550" data-name="Path 550" d="M485.957,1813.04c.049.009.024.044,0,.044-1.365,2.27-2.952,4.84-4.365,7.245-.478.816-.9,1.705-1.4,2.444a4.119,4.119,0,0,1-1,1.047c-.315.124-.741-.008-1,.087,1.494-3.088,3.2-5.966,4.889-8.859C484.024,1814.365,484.967,1813.68,485.957,1813.04Z" fill="#333" fill-rule="evenodd"/>
      <path id="Path_551" data-name="Path 551" d="M581.715,1813.128c.233.4-.146.844-.348,1.178a13.956,13.956,0,0,1-2.314,3.011,26.152,26.152,0,0,1-2.575,1.7,4.681,4.681,0,0,1-.83.568,9.439,9.439,0,0,1-1.7.175c-.547.057-1.087.074-1.658.174-.069-.118.228-.338.393-.481,1.237-1.068,2.563-2.093,3.928-3.141,1.515-1.164,3.128-2.591,4.932-3.143A.861.861,0,0,1,581.715,1813.128Z" fill="#333" fill-rule="evenodd"/>
      <path id="Path_552" data-name="Path 552" d="M558.452,1821.2c.12-.336.1-.79.263-1.179a6.65,6.65,0,0,1,.741-.96,5.51,5.51,0,0,1,.7-.959,9.495,9.495,0,0,1,1.615-.612c1.6-.588,3.211-1.2,4.846-1.746,2.432-.818,4.76-1.509,6.851-2.095h.087c-1.751,1.968-3.526,3.967-5.456,5.936-.259.266-.56.741-.785.829a6.047,6.047,0,0,1-1.134.087C563.686,1820.765,561,1821.018,558.452,1821.2Z" fill="#333" fill-rule="evenodd"/>
      <path id="Path_553" data-name="Path 553" d="M592.8,1817.405c.092.083.231.119.218.3h-.393A1.623,1.623,0,0,0,592.8,1817.405Z" fill="#333" fill-rule="evenodd"/>
      <path id="Path_554" data-name="Path 554" d="M503.546,1817.536c.051.153-.279.329-.48.479-1.4,1.06-3.017,2.182-4.409,3.274v-1.135C500.4,1819.394,501.4,1817.894,503.546,1817.536Z" fill="#333" fill-rule="evenodd"/>
      <path id="Path_555" data-name="Path 555" d="M505.9,1819.674a13.438,13.438,0,0,1,.742,1.485c-.762.037-1.45.149-2.226.174-.074-.154.159-.243.263-.35C505.063,1820.588,505.494,1820.068,505.9,1819.674Z" fill="#333" fill-rule="evenodd"/>
      <path id="Path_556" data-name="Path 556" d="M504.506,1819.806a7.292,7.292,0,0,1-1.309,1.658c-.991.07-1.957.166-2.924.262A13.91,13.91,0,0,1,504.506,1819.806Z" fill="#333" fill-rule="evenodd"/>
      <path id="Path_557" data-name="Path 557" d="M527.9,1819.806a3.49,3.49,0,0,1-.872.479C527.254,1820.06,527.371,1819.727,527.9,1819.806Z" fill="#333" fill-rule="evenodd"/>
      <path id="Path_558" data-name="Path 558" d="M555.79,1819.893c-.081.472-.421,1.063-.568,1.615-.748.037-1.458.113-2.183.174a19.9,19.9,0,0,0,2.1.044c-.147.56-.945.939-.523,1.658a49.726,49.726,0,0,0-1.7,6.852c-3.936.3-7.925.541-11.914.786-.033-.113.226-.314.393-.48,1.842-1.843,3.778-3.868,5.762-5.674a26.288,26.288,0,0,1,2.181-1.964,14.36,14.36,0,0,1,1.7-.83c1.5-.741,3.049-1.414,4.67-2.138C555.753,1819.943,555.78,1819.926,555.79,1819.893Z" fill="#333" fill-rule="evenodd"/>
      <path id="Path_559" data-name="Path 559" d="M623.4,1824.606c-.8,1.922-1.685,3.757-2.62,5.543a7.51,7.51,0,0,1-2.356-.7,25.761,25.761,0,0,0-2.881-.436c-2.387-.338-4.851-.617-7.464-.83a8.9,8.9,0,0,1-1.57-.086,4.23,4.23,0,0,1-.917-.743c-2.085-1.81-4.149-3.671-6.11-5.411,3.675.093,7.269.266,10.736.567-.3-.834.24-1.241.437-1.921.546.355,1.367.744,2.1,1.223a8.442,8.442,0,0,0,2.138,1.135,22.24,22.24,0,0,0,2.314.262c.745.1,1.509.188,2.225.305A10.676,10.676,0,0,1,623.4,1824.606Z" fill="#333" fill-rule="evenodd"/>
      <path id="Path_560" data-name="Path 560" d="M506.776,1821.376c.453.959.972,1.852,1.44,2.794-.8.141-1.578.84-2.444,1.047a21.3,21.3,0,0,1-2.924.218c-.957.079-1.893.2-2.837.263-.056-.244.243-.376.392-.524,1.165-1.164,2.488-2.486,3.711-3.623C505.042,1821.534,505.826,1821.373,506.776,1821.376Z" fill="#333" fill-rule="evenodd"/>
      <path id="Path_561" data-name="Path 561" d="M502.892,1821.682c.048.134-.221.35-.393.524l-2.706,2.7c-.354.355-.7.834-1.222.917-.032-1.109.071-2.082.043-3.185C499.495,1821.777,501.294,1821.832,502.892,1821.682Z" fill="#333" fill-rule="evenodd"/>
      <path id="Path_562" data-name="Path 562" d="M565.916,1821.769c.079.115-.165.286-.306.437-1.521,1.621-3.132,3.276-4.627,5.019a9.352,9.352,0,0,0-1.876,2.619c-.861,0-1.59.126-2.444.13.437-2.835,1.089-5.455,1.659-8.161a.291.291,0,0,1,.13-.087C560.179,1821.819,563.583,1821.746,565.916,1821.769Z" fill="#333" fill-rule="evenodd"/>
      <path id="Path_563" data-name="Path 563" d="M569.1,1821.769c.066.119-.1.236-.173.3-.73.7-1.66,1.4-2.489,2.052a12.543,12.543,0,0,1-3.1,2.051,27.18,27.18,0,0,1,3.8-4.408Z" fill="#333" fill-rule="evenodd"/>
      <path id="Path_564" data-name="Path 564" d="M574.383,1821.813c-2.588,2.489-5.166,4.989-7.768,7.463q-2.431.19-4.889.35c-.029-.139.143-.165.217-.218,3.553-2.572,7.574-5.074,11.218-7.595Z" fill="#333" fill-rule="evenodd"/>
      <path id="Path_565" data-name="Path 565" d="M578.223,1821.813q-3.906,2.727-7.594,5.673h-1c-.039-.147.14-.269.218-.349,1.71-1.747,3.729-3.552,5.456-5.324Z" fill="#333" fill-rule="evenodd"/>
      <path id="Path_566" data-name="Path 566" d="M588.349,1821.813c.036.217-.283.5-.48.741-1.392,1.721-3.27,3.318-4.8,4.932H572.943c-.087-.138.232-.232.391-.349a82.666,82.666,0,0,1,7.945-5.237,6.161,6.161,0,0,1,1.876-.087Z" fill="#333" fill-rule="evenodd"/>
      <path id="Path_567" data-name="Path 567" d="M589.353,1821.813c1.87-.034,3.65.027,5.368.043a8.57,8.57,0,0,1,1.79,0c.339.1,1.142,1.194,1.4,1.484,1.355,1.548,2.761,3.045,4.059,4.453-5.766-.243-11.7-.314-17.72-.307-.038-.11.111-.275.175-.349,1.487-1.7,3.331-3.433,4.8-5.193A.218.218,0,0,1,589.353,1821.813Z" fill="#333" fill-rule="evenodd"/>
      <path id="Path_568" data-name="Path 568" d="M469.939,1838.965q-9.6.593-18.942,1.44c-.018-.2.189-.347.306-.479a116.24,116.24,0,0,1,13.966-12.963,5.954,5.954,0,0,1,1.048-.786,7.738,7.738,0,0,1,1.31-.174c2.847-.417,6.016-.857,8.9-1.353.39-.068.469-.107.261.349-1.018,2.244-2.34,4.525-3.4,6.677C472.13,1834.221,471,1836.554,469.939,1838.965Z" fill="#333" fill-rule="evenodd"/>
      <path id="Path_569" data-name="Path 569" d="M545.359,1825c-1.889,2-3.941,4.207-6.024,6.154-.442.008-.849.052-1.265.087a4.269,4.269,0,0,0,.96.131c-.109.33-.518.573-.829.873-.21.2-1.29,1.093-.525,1.31.465.13,1.153-.676,1.485-.961.283-.243.93-1.031,1.309-1.135a16.61,16.61,0,0,1,3.1,0c2.887.044,6.43.152,9.079.218-.129,1.037-.314,1.99-.436,3.1a5.847,5.847,0,0,1-.088,1.092c-.089.248-.478.427-.786.655-.607.449-.989.791-1.615,1.266a3.714,3.714,0,0,1-.829.567,6.37,6.37,0,0,1-1.44-.087c-1.315-.114-2.937-.287-4.19-.395-1.87-.158-3.561-.507-5.456-.653-1.83-.141-3.66,0-5.456,0H526.9c-.091-.122.236-.27.394-.393a132.554,132.554,0,0,1,13.049-8.991C541.993,1826.847,543.712,1825.889,545.359,1825Z" fill="#333" fill-rule="evenodd"/>
      <path id="Path_570" data-name="Path 570" d="M504.768,1825.653c-2.078,1.094-4.2,2.142-6.2,3.318a9.125,9.125,0,0,1-.045-1.746c.139-.562.886-.866,1.136-1.265C501.373,1825.867,503.033,1825.722,504.768,1825.653Z" fill="#333" fill-rule="evenodd"/>
      <path id="Path_571" data-name="Path 571" d="M511.752,1830.018c-3.434,2.191-6.769,4.569-10.3,6.809a3.66,3.66,0,0,1-2.837.873,4.918,4.918,0,0,1,1.091-1.7c2.051-2.518,4.377-4.857,6.635-7.246.939-.993,1.934-1.965,2.793-2.968C510.03,1827.172,510.92,1828.566,511.752,1830.018Z" fill="#333" fill-rule="evenodd"/>
      <path id="Path_572" data-name="Path 572" d="M507.386,1826.046c.179.622-.407,1.1-.741,1.484-1.1,1.268-2.392,2.417-3.535,3.667-1.54,1.68-3.05,3.388-4.539,4.932-.074-1.992-.035-4.1-.045-6.155C501.338,1828.524,503.939,1826.861,507.386,1826.046Z" fill="#333" fill-rule="evenodd"/>
      <path id="Path_573" data-name="Path 573" d="M465.4,1826.309c.037-.01.041.016.044.043a140.756,140.756,0,0,0-14.185,13.225,3.94,3.94,0,0,1-.917.872,8.813,8.813,0,0,1-1.833.175c-8.99.763-17.749,1.976-27.19,2.27-.037-.217.248-.448.436-.7,2.7-3.582,5.694-7.188,8.38-10.824,7.21-1.112,14.569-2.074,21.953-3.012a17.723,17.723,0,0,0-.7,2.445c.271-.009.461-.3.655-.48a10.351,10.351,0,0,0,1.616-2.226c.386-.007.667-.119,1.047-.131.077.152-.18.267-.3.392a3.444,3.444,0,0,0-1.048,1.441c.438.225.82-.174,1.135-.35a23.485,23.485,0,0,0,2.051-1.266,5.086,5.086,0,0,1,.959-.654,14.492,14.492,0,0,1,1.965-.305C461.4,1826.913,463.562,1826.667,465.4,1826.309Z" fill="#333" fill-rule="evenodd"/>
      <path id="Path_574" data-name="Path 574" d="M477.839,1826.789c.075-.017.082.033.088.086-1.971,3.554-3.994,7.162-6.024,10.694-.271.471-.426,1.139-1,1.353,1.625-3.758,3.337-7.428,5.193-10.955.044-.238.072.152.219.087A10.361,10.361,0,0,0,477.839,1826.789Z" fill="#333" fill-rule="evenodd"/>
      <path id="Path_575" data-name="Path 575" d="M456.279,1827.748a5.481,5.481,0,0,1-1.484.787A1.4,1.4,0,0,1,456.279,1827.748Z" fill="#333" fill-rule="evenodd"/>
      <path id="Path_576" data-name="Path 576" d="M431.706,1828.272a7.715,7.715,0,0,1-1.092,1.7c-.377.117-.859.13-1.265.219-.023-.19.262-.367.437-.524a15.05,15.05,0,0,1,1.832-1.44C431.669,1828.222,431.7,1828.238,431.706,1828.272Z" fill="#333" fill-rule="evenodd"/>
      <path id="Path_577" data-name="Path 577" d="M512.275,1830.761c.307.465-.279.778-.523,1-1.813,1.673-3.645,3.239-5.544,4.977-.3.279-.67.761-.917.829a8.863,8.863,0,0,1-1.614,0c-.834.04-1.491.047-2.27.087-.059-.117.122-.179.175-.219,2.462-1.778,5.241-3.44,7.857-5.106A11.851,11.851,0,0,1,512.275,1830.761Z" fill="#333" fill-rule="evenodd"/>
      <path id="Path_578" data-name="Path 578" d="M514.327,1834.47c-1.166.756-2.387,1.461-3.667,2.27a5.75,5.75,0,0,1-1.221.742c-1.031.242-2.281-.135-3.449.043-.019-.159.171-.31.262-.393,1.99-1.811,4.266-3.718,6.242-5.587.034-.032.057-.127.131-.131C513.234,1832.39,513.8,1833.414,514.327,1834.47Z" fill="#333" fill-rule="evenodd"/>
      <path id="Path_579" data-name="Path 579" d="M429.349,1831.5c.092.216-.266.48-.436.7-2.724,3.488-5.674,7.066-8.293,10.694-.946,0-1.906.014-2.794-.043a125.385,125.385,0,0,1,8.512-9.778c.41-.41.88-1.149,1.266-1.31S428.986,1831.665,429.349,1831.5Z" fill="#333" fill-rule="evenodd"/>
      <path id="Path_580" data-name="Path 580" d="M556.445,1831.807c.342.109.92-.018,1.265.088a16.657,16.657,0,0,1-1.441,1A10.87,10.87,0,0,1,556.445,1831.807Z" fill="#333" fill-rule="evenodd"/>
      <path id="Path_581" data-name="Path 581" d="M563.471,1832.158c.038.212-.527.584-.786.827-1.77,1.675-3.654,3.4-5.412,5.151a2.907,2.907,0,0,1-.96.786,2.37,2.37,0,0,1-.3-1.222,17,17,0,0,1,.175-4.233c.627-.447,1.4-1.06,2.1-1.486a8.935,8.935,0,0,1,2.662.045C561.8,1832.078,562.618,1832.13,563.471,1832.158Z" fill="#333" fill-rule="evenodd"/>
      <path id="Path_582" data-name="Path 582" d="M426.382,1831.981c.065.13-.115.237-.175.307-1.422,1.639-3.026,3.308-4.452,5.019-1.536,1.841-3.082,3.7-4.584,5.5a1.48,1.48,0,0,1-.959-.305c.4-1.184.954-2.217,1.4-3.361-.194-.135-.448.045-.7,0,1.382-2.182,2.916-4.213,4.409-6.285C422.992,1832.549,424.664,1832.244,426.382,1831.981Z" fill="#333" fill-rule="evenodd"/>
      <path id="Path_583" data-name="Path 583" d="M574.644,1833.292a16.6,16.6,0,0,1-.916,2.269,19.457,19.457,0,0,1-.916,2.27,5.025,5.025,0,0,1-1.267,1.265,6.782,6.782,0,0,1-1.484.087c-3.521.133-7.389-.008-10.824-.087a4.629,4.629,0,0,1,.83-.872c2.082-1.912,4.3-3.924,6.5-5.761a.33.33,0,0,1,.131-.088c1.332.1,2.73.23,4.1.35A15.966,15.966,0,0,1,574.644,1833.292Z" fill="#333" fill-rule="evenodd"/>
      <path id="Path_584" data-name="Path 584" d="M419.485,1833.2c.037-.008.042.017.044.043-1.3,1.925-2.488,3.973-3.666,6.024-1.41.191-2.844.358-4.278.524q1.285-2.951,2.663-5.8C415.965,1833.7,417.9,1833.625,419.485,1833.2Z" fill="#333" fill-rule="evenodd"/>
      <path id="Path_585" data-name="Path 585" d="M515.985,1837.35c-1.508.063-3.1.039-4.626.087a26.9,26.9,0,0,1,3.536-1.789C515.285,1836.159,515.694,1836.884,515.985,1837.35Z" fill="#333" fill-rule="evenodd"/>
      <path id="Path_586" data-name="Path 586" d="M552.036,1836.434c.126.632-.036,1.549.088,2.182-.926-.02-1.735-.156-2.662-.175C550.227,1837.68,551.209,1837.134,552.036,1836.434Z" fill="#333" fill-rule="evenodd"/>
      <path id="Path_587" data-name="Path 587" d="M379.55,1828.8c.05.009.024.044,0,.044-1.49.845-3.144,1.639-4.671,2.531a8.543,8.543,0,0,1-1.527.829c-1.231.406-2.579.613-3.884.917a125.46,125.46,0,0,1-16.017,3.055,8.484,8.484,0,0,1-4.279-.218,32.29,32.29,0,0,1,1.7-4.191,4.986,4.986,0,0,1,.785-1.658,6.268,6.268,0,0,1,1.7-.7c4.066-1.361,8.712-2.5,12.919-3.58,5.182-1.327,10.17-2.622,15.145-3.754-3.165.422-6.648,1.029-10.389,1.179-1.18.047-2.5.154-3.316-.48a19.063,19.063,0,0,1,1.222-2.837c.223-.455.437-.934.655-1.4a5.388,5.388,0,0,1,.829-1.528,8.493,8.493,0,0,1,2.4-.916c2.517-.792,5.118-1.511,7.638-2.227.411-1.188.883-2.317,1.31-3.492-10.965,2.481-21.384,5.5-32.341,8.032a79.927,79.927,0,0,1-8.425,1.658,4.636,4.636,0,0,1-2.924-.174c.374-1.541.963-2.89,1.484-4.409.156-.453.33-1.321.655-1.571a7.269,7.269,0,0,1,1.79-.742c4.246-1.459,9.229-2.887,13.442-4.147-2.52.3-5.693,1.164-8.642.612-2.291.645-4.666,1.264-7.113,1.833a4.945,4.945,0,0,1-2.444.262,17.423,17.423,0,0,1,.916-2.968c.332-.99.634-1.978,1-2.924,2.619-.871,5.3-1.541,7.944-2.227a35.071,35.071,0,0,0,3.971-1.134c5.762-2.249,12-4.134,18.156-5.979.28-.084.691-.112.83-.438-3.279.494-6.659,1.2-10.039,1.79-1.669.293-3.39.506-5.063.874-.8.174-1.64.345-2.487.479a3.525,3.525,0,0,1-2.532-.087c.869-1.925,2-3.586,2.968-5.412,3.921-1.694,8.684-2.547,12.657-4.19-10.963,2.312-22.072,5.615-33.607,7.812a55.157,55.157,0,0,1-9.165,1.223c-1.354.037-3.433-.081-2.706-1.309-5.058,1.687-9.959,3.733-15.233,5.237-.7.2-1.548.631-2.313.262a17.424,17.424,0,0,1,1.4-2.663c.493-.87.959-1.784,1.484-2.575a4.49,4.49,0,0,1,1.833-.959c8.749-3.444,18.234-6.452,27.147-9.515.486-1.083.888-2.318,1.353-3.536.146-.38.348-1.076.568-1.222a8.115,8.115,0,0,1,1.833-.611c4.339-1.312,8.869-2.468,13.269-3.666,15.1-4.117,30.747-8.538,45.827-12.308-2.537.239-5.124.513-7.638.742-1.35.123-2.687.129-3.885.349a28.331,28.331,0,0,0-3.229.96c-10.866,3.362-21.277,6.757-32.123,10.04-1.612.486-3.242.908-4.933,1.4-.488.141-1.037.517-1.571.261-.055-.442.392-.87.656-1.308.523-.872.993-1.729,1.57-2.662.233-.376.63-1.164.917-1.31,1.582-.8,3.345-1.481,5.107-2.226,5.036-2.129,10.614-4.319,15.843-6.11-13.2,2.393-25.791,6.142-39.237,8.641-.908.17-1.887.339-2.925.481-1.263.172-3.049.526-3.841-.175.011-.469.332-.628.437-1-.668-.162-1.6-.058-2.269-.218a19.863,19.863,0,0,1,1.658-3.449c.886.046,1.81.052,2.749.043.312-.276.388-.656.7-.872a9.7,9.7,0,0,1,2.1-.785c4.951-1.7,10.392-3.215,15.494-4.671,10.548-3.008,21.08-5.631,32.035-8.248.789-.189,1.553-.345,2.314-.568.717-.21,1.421-.492,2.138-.742,5.835-2.036,11.624-3.87,17.5-5.5-22.076,3.623-42.92,8.545-63.33,13.923-5.06,1.334-10.128,2.762-15.494,3.841-.87.175-1.831.371-2.75.48a3.959,3.959,0,0,1-2.706-.218,11.847,11.847,0,0,1,1.528-2.749c.258-.427.521-.868.786-1.309s.506-1.153.872-1.4a16.287,16.287,0,0,1,3.317-1.4c7.49-2.66,15.248-5.091,23-7.463.282-.087.585-.221.873-.305.265-.08.644-.051.742-.393-4,.785-8.093,2.122-12.483,2.705a2.754,2.754,0,0,1-1.833-.087,4.3,4.3,0,0,1,.568-1.441c.669-1.329,1.426-2.731,2.1-4.1,8.2-2,16.626-3.764,24.965-5.63,6.221-1.392,12.392-2.981,18.637-4.321a31.706,31.706,0,0,0,5.979-1.659c-8.861,1.77-18,4.193-27.1,6.2a50.286,50.286,0,0,1-7.158,1.178c-.815.066-2.172.121-2.314-.349-.113-.378.407-.657.524-1.047-2.747.822-5.588,1.815-8.555,2.487-.944.214-2.123.6-3.055.088a11.353,11.353,0,0,1,.873-2.1,43.776,43.776,0,0,1-8.379,1.048c-.806,0-2.559-.079-2.532-.7.022-.5.547-1.04.829-1.484a38.849,38.849,0,0,1,2.793-4.014c-1.493.345-3.118.809-4.757,1.091-.509.087-1.139.276-1.571-.088.622-1.344,1.267-2.727,2.008-4.1.284-.529.6-1.341,1.047-1.571a33,33,0,0,1,3.71-1.223,16.022,16.022,0,0,0-1.79.218,5.87,5.87,0,0,1-1.964-.086c-1.284.449-2.58.968-3.971,1.4a1.8,1.8,0,0,1-1.44.087c.023-.523.433-.921.7-1.353.543-.886,1.047-1.726,1.614-2.661.284-.468.559-1.207.961-1.442a27.729,27.729,0,0,1,4.19-1.57c4.185-1.523,8.481-3.078,12.7-4.54,2.83-.98,5.6-2.1,8.38-3.142,13.9-5.188,28.858-9.907,43.557-13.88-11.873,1.9-23.453,4.434-34.916,6.9-2.217.477-4.367,1.215-6.5,1.878a77.752,77.752,0,0,1-9.776,2.792,14.786,14.786,0,0,1-1.877.218c-.639.031-1.265-.116-1.964-.13a13.012,13.012,0,0,0-2.794.655c-4.686,1.143-9.2,2.261-14.1,3.142-.93.167-1.967.352-2.968.48-.925.117-2.082.461-2.88-.219a35.7,35.7,0,0,1,2.269-3.928,6.575,6.575,0,0,1,.83-1.4,8.855,8.855,0,0,1,2.749-1.091c1.006-.309,1.982-.563,2.968-.829.031-.117-.042-.417,0-.568a9.605,9.605,0,0,1,.742-1.222c.677-1.156,1.478-2.662,2.138-3.667.4-.6,2.09-.938,3.1-1.266,7.013-2.266,14.57-4.255,21.779-6.284,8.5-2.392,16.988-4.559,25.4-6.634-3.888.71-7.559,2.015-11.74,2.576a.408.408,0,0,1-.219-.568c-7.763,2.072-15.275,4.676-23.263,6.546-.55.13-1.153.286-1.746.393-.527.1-1.193.352-1.7-.043a3.347,3.347,0,0,1,.654-1.354c.251-.428.528-.864.785-1.308a18.709,18.709,0,0,1,1.528-2.619c.458-.538,2.293-.928,3.143-1.179,7.151-2.107,14.618-4.127,21.779-6.11,8.457-2.342,16.786-4.706,25.1-6.809a579.968,579.968,0,0,0-61.5,15.845c-5.689,1.789-11.258,3.841-17.152,5.455-.4.109-.868.211-1.31.305-.4.084-.89.267-1.266-.044a9.485,9.485,0,0,1,.786-1.658c-2.22.74-4.44,1.622-6.765,2.313a4.319,4.319,0,0,1-2.4.349,18.623,18.623,0,0,1,1.266-2.749c.467-.909.984-1.784,1.4-2.707,5.813-2.208,11.864-3.909,17.677-6.022s11.643-4.22,17.545-6.154c.54-.54.662-1.574,1.178-2.139a5.64,5.64,0,0,1,1.528-.786c7.884-3.539,16.6-6.571,24.877-9.515-12.965,2.608-26.24,6.275-39.324,9.34a61.831,61.831,0,0,1-10.344,1.833,11.207,11.207,0,0,1-3.8-.174c-.277-.091-.78-.445-.786-.786,0-.309.608-.906.917-1.222,1.065-1.087,2.211-2.167,3.23-3.186,1.457-1.456,3.646-2.181,5.543-2.967,4.109-1.7,8.236-3.1,12.482-4.539.051-.1.006-.35.088-.525a7.14,7.14,0,0,1,1.265-1.309l1.266-1.265a10.206,10.206,0,0,1,2.794-2.314,66.166,66.166,0,0,1,7.725-2.444,27.358,27.358,0,0,1,1.222-2.488c6.136-1.676,12.4-3.225,18.724-4.713.053-.08-.139-.145-.088-.393a8.736,8.736,0,0,1,.829-1.266c.565-.925.995-1.6,1.571-2.532.263-.423.512-1.123.874-1.308a44.038,44.038,0,0,1,4.844-1.877c11.4-4.183,23.982-7.367,36.706-10.214,7.443-1.665,15-3.058,22.477-4.32,1.921-.325,3.847-.562,5.718-1,5.34-1.263,10.983-2.57,16.367-3.71-10.433,1.467-20.714,3.2-30.813,5.106-10.161,1.918-20.182,3.777-30.029,5.98-14.78,3.307-28.957,6.974-42.86,11.173-3.428,1.035-6.824,2.16-10.43,3.055-.6.149-1.239.286-1.878.393a2.438,2.438,0,0,1-1.876-.087,19.786,19.786,0,0,1,1.309-2.793c.2-.4.451-.887.7-1.354.262-.493.521-1.31.916-1.527a17.868,17.868,0,0,1,2.881-1.047c.48-.162.986-.314,1.483-.481a11.883,11.883,0,0,0,1.485-.48c.317-.159.547-.421.829-.567a20.582,20.582,0,0,1,3.055-1.048c4.03-1.3,8.289-2.8,12.352-4.146a422.318,422.318,0,0,1,52.462-13.443c.034-.123-.518-.034-.525-.262.694-1.445,1.572-2.706,2.358-4.059,6.184-1.38,12.727-2.4,19.16-3.535-22.54,2.343-44.126,5.448-64.508,10.039-5.043,1.135-9.963,2.507-15.188,3.447-.862.156-1.8.319-2.706.393a4.479,4.479,0,0,1-2.706-.3,5.233,5.233,0,0,1,.523-1.572,7.638,7.638,0,0,1,.61-1.571c.543-.743,1.973-.971,3.1-1,.031.4-.31.792-.393,1.223,7.376-1.446,14.4-3.92,21.823-5.674,22.158-5.238,46.025-8.954,70.793-11.653q24.766-2.7,50.5-4.5c12.822-.909,25.728-1.674,39.15-2.095,3.307-.1,6.57-.131,10.082-.131a7.7,7.7,0,0,1,3.142.262,16.439,16.439,0,0,1-1.571,2.706c-.238.378-.527.827-.83,1.309-.254.4-.5,1.077-.828,1.266a8.288,8.288,0,0,1-2.1.306c-21.4,2.437-44.062,3.79-65.511,6.066-.32.034-.736.052-1.092.088-.275.027-.715-.021-.786.392,13.005-.784,26.043-.9,39.369-1.091.976-.014,1.94.008,3.011,0,.875-.006,2.722,0,4.147,0,7.33,0,14.646.4,21.91.873,11.283.739,22.677,1.861,33.868,2.794,11.267.938,22.515,1.819,32.3,4.452a16.266,16.266,0,0,1-.96,1.788c-10.047.214-19.313-.7-28.545-1.614-9.212-.91-18.445-1.686-27.933-2.183-9.534-.5-19.156-1.257-28.849-1.309-9.446-.051-19.226-.15-28.762.131-.581.773-1.046,1.659-1.572,2.488a73.807,73.807,0,0,1-8.9,2.182c8.79-.666,17.929-.847,27.149-1.265,4.437-.2,8.647-.885,13.486-.655a5.555,5.555,0,0,1,2.487.349c-.886,1.7-1.984,3.195-2.924,4.844,13.516-1.234,27.412-1.741,41.2-2.183,7.2-.229,13.795-.261,20.776-.261,6.256,0,12.292.093,18.462.393a6.6,6.6,0,0,1,2.444.306,3.69,3.69,0,0,1-.7,1.221c-.537.777-1.061,1.527-1.614,2.358-.263.393-.56,1.061-.917,1.265a6.226,6.226,0,0,1-2.051.393c-.32.045-.712.087-1.092.131a4.456,4.456,0,0,0-1.091.131c-.252.109-.573.713-.785,1.047-.532.839-.893,1.4-1.44,2.226-.344.52-.534,1.015-1.091,1.179-2.36.691-5.157.651-7.769,1.09.937.082,1.956,0,3.01,0a10.414,10.414,0,0,1,2.882.089,19.922,19.922,0,0,1-1.528,2.661c-.547.876-1.089,1.756-1.615,2.619-1.994.014-3.848.168-5.762.261,2.413-.027,4.936-.138,7.333-.261a6.667,6.667,0,0,1,2.4.087c-.041.53-.468.922-.742,1.354q-.839,1.319-1.7,2.662c-.276.429-.454,1-.916,1.265.763.145,1.67.351,2.705.611.978.247,2.755.728,1.964,1.746,4.784-.037,9.806-.119,14.882.175a3.311,3.311,0,0,1,1.878.35c-.75,1.263-1.678,2.588-2.575,3.927-.226.338-.718,1.183-1,1.266a29.268,29.268,0,0,1-4.494.611c-10.382,1.2-21.881,2.2-32.43,3.055,6.437-.269,12.737-.268,18.942-.392.938-.019,2.074-.066,3.143-.044,1.47.03,4.773-.007,6.9.088,2.526.112,4.974.005,7.506.13s5.106.111,7.64.218c3.716.157,7.531.42,11.041.873,1.083.14,2.327.138,3.1.873a13.646,13.646,0,0,1-2.182,2.27c-.322.323-.7.747-1.091,1.135a5.444,5.444,0,0,1-1.134,1.046,12.5,12.5,0,0,1-3.492.394c-4.766.354-9.707.767-14.4,1.134-3.4.267-6.768,1.154-10.17,1.44.348.09.887-.013,1.092.219-1.039,1.813-2.222,3.482-3.4,5.15-1.85.067-4.222.132-6.286.132a8.669,8.669,0,0,0-2.094.043c-.539.168-.851,1.35-1.267,1.7,4.817-.183,9.74-.262,14.84-.262a13.778,13.778,0,0,1,4.582.436c-.022.458-.307.653-.436,1,5.629,0,11.728-.2,17.153.219a3.4,3.4,0,0,1,2.007.48,21.434,21.434,0,0,1-1.527,2.7c-.244.405-.538.835-.829,1.31-.264.431-.587,1.167-.917,1.353-.391.221-.936.116-1.4.3-.325.135-.543.525-.872.873-.288.3-.62.621-.873.873a10.863,10.863,0,0,1-1.746,1.7c-.9.509-2.764.543-4.059.654-9.473.811-19.062,1.063-28.763,1.7a11.268,11.268,0,0,0-2.182.13c-.487.182-.442.832-.873,1.005a9.823,9.823,0,0,1-2.007.13c-9.806.643-19.958,1.623-29.548,2.444-10.628.91-20.945,2.067-30.9,3.187,10.624-.767,21.519-1.5,32.734-1.922,9.722-.364,19.715-.7,29.461-.7.709,0,1.426-.022,2.139-.044a18.942,18.942,0,0,1,2.05-.087c.216.018.41.145.612.174a21.67,21.67,0,0,0,2.575,0c5.838.09,11.522.366,17.109.786a41.4,41.4,0,0,0,4.932,0c4.582-.2,8.782-.22,13.574-.218.357,0,.786-.1,1.09.174.072.29-.235.474-.393.654-.842.967-1.626,1.92-2.531,2.969-.259.3-.754,1.044-1.047,1.135-.474.146-1-.051-1.44.044-1.059,1.791-2.159,3.544-3.274,5.281a51.942,51.942,0,0,1-6.808,1c-2.264.256-4.525.471-6.592.7,4.883.565,9.644.966,14.4,1.745.6.1,1.153.287,1.7.349a10.769,10.769,0,0,0,1.921-.086c2.875-.2,6.44-.439,9.383-.393a4.264,4.264,0,0,1,1.79.218,3.985,3.985,0,0,1-.83,1.352c-.909,1.209-1.848,2.461-2.836,3.667-3.207.384-6.9.57-10.3.829-3.24.247-6.492.834-9.776,1.178-6.708.705-13.408,1.129-20.251,1.7,5.162.262,10.851.515,16.061.961a15.638,15.638,0,0,1,4.888.786c-.523,1.193-1.2,2.231-1.789,3.36.252.154.734.082.916.306a60.9,60.9,0,0,1-3.23,5.324c-.908.125-1.991.075-2.968.132-.327.763-.733,1.448-1.047,2.225h10.606c9.558,0,18.9.112,28.107.83a4.19,4.19,0,0,1,2.183.48,14.675,14.675,0,0,1-1.7,2.575c-.606.867-1.175,1.852-1.833,2.618-6,1.033-12.606,1.8-19.029,2.62a6,6,0,0,0-1.266.173c-.349.172-.4.679-.653.831a5.754,5.754,0,0,1-1.835.261c-1.866.174-3.9.311-5.805.436-2.717.179-5.339.187-7.812.481-5.139.608-9.932,1.277-14.709,1.92,8.844-.014,18.957.1,27.934.83a8.659,8.659,0,0,1,3.448.7c-.464,1.39-1.174,2.843-1.834,4.32a4.965,4.965,0,0,1-.741,1.44,6.066,6.066,0,0,1-2.008.48c-4.92.775-10.5,1.333-15.408,1.922-.51.884-.956,1.836-1.439,2.749,10.837-.538,21.99-1.034,33.214-.916a4.407,4.407,0,0,1,2.007.261c-.782,1.865-1.624,3.67-2.443,5.5,2.348.385,5.294.175,7.07,1.135-.007.05.009.077.044.086-1.175,2.362-2.646,4.426-3.8,6.81,1.746.115,3.809-.086,5.281.305a61.236,61.236,0,0,1-2.314,5.761c-10.735,1.253-22.076,1.9-33.344,2.618,9.023-.06,17.99-.785,27.366-.785a8.5,8.5,0,0,1,3.621.393c3.617.045,7.856.169,11.348.392a7.746,7.746,0,0,1,3.361.568c-.691,1.986-1.505,3.848-2.313,5.718a61.643,61.643,0,0,1-8.337,1.178c-2.877.285-5.819.548-8.729.741-.644.6-.735,1.965-1.484,2.4a7.96,7.96,0,0,1-2.488.567c-.878.144-1.782.256-2.662.392,2.31.368,5.091.264,7.027,1-.628,2.02-1.438,3.858-2.182,5.761a80.589,80.589,0,0,1-10.606.874c-3.654.172-7.4.325-11.043.436-.694,1.312-1.173,2.842-1.875,4.146-5.827.182-12.352.336-18.376.611a5.219,5.219,0,0,1-1.178.043c-.339-.093-.673-.732-.96-1.09-.967-1.207-1.865-2.145-2.881-3.273.152-.54.622-.9.523-1.528-.139-.884-1.446-.31-1.962-.043-2.242-1.712-3.478-4.334-5.239-6.505a31.188,31.188,0,0,0-5.761-5.935c.088-.256.462-.5.306-.829-.211-.449-.811-.023-1.222-.087-.579-.09-1.344-1.343-1.833-1.659.229-.529-.109-.911-.262-1.309.4-.386.816-.669,1.265-1.135.265-.274,1.047-.971.961-1.44-.111-.6-1.279-.221-1.79-.088-.718.189-1.207.416-1.789.612a30.332,30.332,0,0,1-2.837-5.979,4.737,4.737,0,0,1-.306-.918c.024-.412.632-.606.786-1a1.377,1.377,0,0,0,.043-.524c8.091-.557,16.361-1.183,24.572-1.571,4.138-.2,8.186-.456,12.179-.873,4.01-.419,7.971-.766,11.914-1.135-6.454-.2-13.087-.219-19.814-.218a54.369,54.369,0,0,0-6.461.174c-7.939.974-15.989,1.9-23.873,2.75-.234-.656-.116-1.407-.524-1.877-.385-.444-1.38-.36-2.052-.174a10.3,10.3,0,0,0-3.579-3.491,47.2,47.2,0,0,1-5.892-4.715,28.088,28.088,0,0,1-2.968-4.1c-.212-.318-.463-.682-.7-1.047-.458-.708-.594-1.417-1.7-1.484-.234-.042-.114-.439-.393-.437-.261.113.107.437-.043.568-.411.217-.9.4-1.354.612-.4.187-.966.364-1.09.829.144.274.414-.193.61,0a7.1,7.1,0,0,1,1.877,1.79c-3.528,1.082-6.764,2.46-10.082,3.752,1.62-1.088,3.287-2.292,4.976-3.447.373-.256,1.525-.74,1.483-1.31-.065-.907-1.282-.13-1.833.174-3.082,1.707-6.122,3.636-9.078,5.369a99.618,99.618,0,0,1-10.648,5.892,26.735,26.735,0,0,1,5.586-3.666c4.954-2.75,9.878-5.648,14.97-8.336a10.08,10.08,0,0,0,2.793-1.833c.841-.236,1.7-.455,2.488-.742-.082-.221-.2-.7-.48-.786a5.393,5.393,0,0,0-1.309.175,155.016,155.016,0,0,0-17.764,4.233c-3.066.879-5.938,1.916-8.773,2.968a41.36,41.36,0,0,1-9.034,2.619c-.068-.272.165-.241.348-.263-.092-.145-.321.071-.392-.042-.064-.7-.1-1.54-.087-2.184a7.749,7.749,0,0,0-1.659.874,13.032,13.032,0,0,0-.394,1.527c-1.182.053-2.288.185-3.446.262a31.118,31.118,0,0,1,2.007-4.67c.117.088.106.3.262.35.075-.206-.091-.511-.044-.829.35-.382.284-.8.655-1.179.815-.84,3.048-1.158,2.007-2.575-.306-.093-.685.555-.916.393.434-.824.866-1.64,1.31-2.575a6.106,6.106,0,0,0,.959-2.881c-.188-1.637-2.683-.2-3.448.218-.884.486-1.565.959-2.313,1.353-.209-1-.5-2.112-.742-3.273a4.192,4.192,0,0,1-.218-1.135,9.9,9.9,0,0,1,.917-1.921c.315-.719,1.209-2.6.131-2.88-.742-.191-1.257.553-1.921.7-.332-1.772-.678-3.9-1-5.892a11.9,11.9,0,0,1-.348-1.919c.022-.545.346-.961.261-1.442-.075-.429-.329-.5-.611-.742-.1-1-.235-1.746-.393-2.748a3.511,3.511,0,0,1-.13-.917c.1-.5,1.053-.615.96-1.223-.074-.477-.814-.273-1.135-.218.742-1.512,2.458-3.6,2.706-5.543.21-1.646-1.4-.9-2.139-.436a11.019,11.019,0,0,1-1.4.873c-.283-1.676-.5-3.222-.786-4.977a8.013,8.013,0,0,1-.3-1.614,9.605,9.605,0,0,1,.785-1.746c.229-.536.819-1.687.262-2.095-.187-.137-.578-.046-.742-.087a7.71,7.71,0,0,1-1.092-.523c-.052-.34-.132-.653-.173-1-.015-.246.454-.287.479-.655.039-.569-.728-.857-.917-1.266a8.977,8.977,0,0,1-.349-1.659c-.009-.328.173-.615.131-.828-.038-.2-.226-.273-.436-.481-.507-1.089-.166-2.238-.393-3.535a5.934,5.934,0,0,0-.48-1.091c-.163-.354-.349-.713-.48-1.047a45.164,45.164,0,0,1-1.309-4.845,5.438,5.438,0,0,0-.83-2.226,2.719,2.719,0,0,0-.261,1.352,10.251,10.251,0,0,0-.087,1.484,12.9,12.9,0,0,0,.741,2.576c.664,2.166,1.1,4.273,1.7,6.591a5.851,5.851,0,0,1,.306,1.308,1.419,1.419,0,0,1-.83.611,5.076,5.076,0,0,1-1.571-.611c-.568-.232-1.079-.441-1.527-.611.237-.719.556-1.439.829-2.269a5.55,5.55,0,0,0,.48-2.576c-.192-1.307-1.506-.632-2.225-.086a10.551,10.551,0,0,0-3.492,3.71,38.068,38.068,0,0,0-13.4.872,106.2,106.2,0,0,1,3.929-11.3c.185-.463.529-1.042.3-1.572-.337.036-.388.479-.481.7-.763,1.826-1.661,3.725-2.4,5.674-.854,2.252-1.467,4.64-2.444,6.808-.59.24-1.279.38-1.834.654,1.186-4.531,2.415-9.4,4.278-13.4.03.355-.4.851-.307,1.266.378-.014.52-.562.656-.917a4.161,4.161,0,0,0,.3-1.353,25.389,25.389,0,0,1,7.6-.393,29.943,29.943,0,0,1,6.328,1.921,3.716,3.716,0,0,0,.83-1,8.589,8.589,0,0,0-1.441-2.095,4.515,4.515,0,0,0,2.4-.655,12.865,12.865,0,0,0,1.79-2.225c.19-.238.532-.549.523-.786-.019-.6-1.166-.844-1.745-.96a23.705,23.705,0,0,0-2.444-.262c-1.058-2.957-.736-7.294-1.4-10.649a10.789,10.789,0,0,1,1.354,4.495c.317-.1.322-.49.436-.742s.27-.52.392-.785c.8-1.744-.067-4.415-.261-6.024.649-.3,1.5-.527,1.57-1.221.06-.594-.661-1.339-1.091-1.833a4.413,4.413,0,0,0-1.571-1.354,1.614,1.614,0,0,0-1,.218c.154-.472.424-.826.61-1.265a13.082,13.082,0,0,0-1.44-1.179,33.648,33.648,0,0,1-2.4-2.837c-.6-.7-1.322-1.751-2.575-1.222-1.771,2.49-4.137,4.455-6.067,6.809a6.632,6.632,0,0,0-.785,1.353,11.208,11.208,0,0,1-.742,1.4,11.356,11.356,0,0,1-1.747,1.572c-.291.246-.623.478-.916.741-.244.22-.664.466-.654.874.444.106.873-.278,1.308-.48a12.729,12.729,0,0,0,1.31-.612c.009.322-.306.617-.262.961.081.643,1.079.883,1.571,1.178-.022.263-.212.561-.086.83.467.031.453-.653.784-.612.446.036.792.169,1.266.176a15.826,15.826,0,0,1-.436,5.8c-.339,1.884-.763,3.75-1.048,5.63-1.1.554-2.39.76-3.186,1.571-.654.667-1.071,1.5-1.658,2.226.14.292.449-.046.7-.044a8.543,8.543,0,0,0-2.75,2.881c-.26.341-.661.609-.7,1.047.469.247,1.065-.03,1.528-.218a7.963,7.963,0,0,1,1.31-.567c-.835,3.552-1.8,7.038-2.576,10.78-.125.609-.268,1.216-.393,1.834a3.453,3.453,0,0,1-.524,1.7,2.031,2.031,0,0,1-.13,1.44c-.22.426-.873.578-.917,1.048.025.281.445.166.655.262a10.706,10.706,0,0,1-.306,1.483c-.258.678-1.366,1.357-.305,1.7-1.132,5.27-2.071,10.731-2.968,16.235a16.434,16.434,0,0,0-1.572.873,3.678,3.678,0,0,0-1.44.961c.457.147.915-.193,1.353-.35a8.592,8.592,0,0,1,1.44-.392,16.5,16.5,0,0,1-.567,1.7c-.207.535-1.01,1.782-.3,1.92.084.016.291-.164.261,0,.1.593-.7.627-1.09.786a12.138,12.138,0,0,0-1.266.611,7.714,7.714,0,0,0-2.27,1.484c.534.423,1.439.16,2.1.043.732-.13,1.454-.289,2.1-.392-.869,5.444-1.974,10.654-2.967,15.973a10.071,10.071,0,0,0-2.4,1.791c.085.291.41.345.742.392.212.154.163.373.436.481.212.081.457-.027.7.086-.238,2.019-.917,3.595-1.222,5.544.445-.083.567-.623.7-1.048.4-1.284.56-3.115.831-4.539a39.132,39.132,0,0,1,6.9-1.049,176.466,176.466,0,0,1,22.52-1.177c.056.254-.253.489-.436.785-.16.259-.3.563-.481.874-.2.358-1.077,1.768-.523,2.095.449.265,1.144-.455,1.4-.655.9-.721,1.465-1.188,2.312-1.964.26-.238.731-.9,1.136-1a6.191,6.191,0,0,1,1.57.086,20.406,20.406,0,0,1,4.365.524c-1.381.3-3.122,0-4.452.218a4.658,4.658,0,0,0-1.527.873,3.687,3.687,0,0,0-1.178.917c.241.308.762.32,1.178.349,1.384.1,3.04-.107,4.408-.043.088.181-.133.3-.218.436-.3.468-.616,1.015-.918,1.528a5.679,5.679,0,0,0-.959,2.313c.72.685,2.023-.7,2.575-1.135a73.813,73.813,0,0,1,6.329-4.67,15.682,15.682,0,0,0,2.269,2.007c-1.1,2.295-2.281,4.5-3.448,6.721-.878.12-1.728.1-2.575.263a8.682,8.682,0,0,1-2.356.392c-1.651-.14-3.245-.479-5.02-.655-.176-.081.346-.338.131-.61-.943-.177-1.755.338-2.531.436a10.073,10.073,0,0,1-3.4-.481,22.44,22.44,0,0,1-8.162-3.491,8.534,8.534,0,0,0-2.051,1.79c-.3.076-.58.177-.873.262-.152.106.032-.3-.175-.349-.129-.106-.39.152-.523.044a5.227,5.227,0,0,1,1.048-1.921c-.631.052-1.085.6-1.572.96a4.872,4.872,0,0,0-1.352,1.266c-7.182,1.751-13.855,4.012-20.776,6.023-.3.093-.171-.236-.393-.218-.923.415-1.476,1.433-2.27,1.832-.049-.353.783-.71.917-1.178-.716.145-1.162.876-1.7,1.4-1.033.993-2.164,1.967-3.4,2.968-.5.407-1.6.98-1.57,1.659.022.509.472.765,1.091.61-1.187,2.092-2.593,4.259-3.711,6.329a5.182,5.182,0,0,1-.916.829c-.588.489-1.147.932-1.746,1.441-.244.208-.683.413-.654.829.447.106.866-.31,1.222-.568.383-.277.75-.575,1.091-.829-.917,1.994-2.148,4.05-3.143,6.11a27.443,27.443,0,0,1-4.844,2.183c.912-.638,2.009-1.058,2.924-1.7a14.749,14.749,0,0,0,1.746-1.746c.168-.168.527-.342.393-.655-.718-.165-1.27.293-2.008.568a4.03,4.03,0,0,1-1.834.218,2.984,2.984,0,0,0-.567-.087c-.319.051-1.029.827-1.178,1.091-.11.194-.048.231-.088.392-4.979,2.034-9.544,4.881-14.621,6.853-.362.14-.743.267-1.135.393s-.843.149-1.222.306a4.942,4.942,0,0,0-1.134,1.047c-1.051,1.093-2.136,2.24-3.1,3.317.156.377.6.27.741.611.358.891-.133,2.39-.35,3.142a36.956,36.956,0,0,1-3.36,7.245,5.079,5.079,0,0,0-2.75,1.047,107.331,107.331,0,0,1-27.365,12.309c-.456.131-1.833.31-1.833.959,0,.851,1.351.52,2.181.394A33.152,33.152,0,0,0,379.55,1828.8Zm116.621-191.384c-.048,0-.112.02-.045.043,7.851-.749,16.066-1.131,23.744-2.052A156.8,156.8,0,0,0,496.171,1637.412Zm-55.343,4.233c-1.826.277-3.662.456-5.456.829-3.366.7-6.7,1.684-10.038,2.488-16.9,4.071-33.25,8.493-50.017,12.787-.259.11.291.019.042.044.267-.027.606-.162.874-.218,12.437-2.586,25.308-4.887,38.1-7.026.429-.432.478-1.141.96-1.441a5.725,5.725,0,0,1,1.265-.349c13.539-3.2,27.432-6.319,40.9-9.3C451.717,1640.117,446.273,1640.816,440.828,1641.645Zm60.143.611a8.146,8.146,0,0,0-1.266.087c-.337.1-.426.449-.829.611a18.33,18.33,0,0,1-3.1.7c-3.194.634-6.522,1.179-9.6,1.834,3.1-.327,6.069-.2,8.947-.568,1.378-.176,2.749-.471,4.1-.7,6.912-1.161,13.685-2.255,20.864-3.23C513.67,1641.343,507.166,1641.75,500.971,1642.256Zm-42.554,2.095a3.207,3.207,0,0,0-.96-.655c-.648-.037-.373.474-.393.83-.017.291-.241.536-.219.742.053.477.6.756.7,1.309a6.149,6.149,0,0,1-1.046.61c-.273.115-.517.041-.568.306-.15.788,1.448.429,2.139.611-.3,1.212.931.855,1.091.175.207.31.55.086.829,0a1.486,1.486,0,0,0-.131-1.4c.234-.259.447-.635.743-.916.184-.177.553-.318.479-.655-.046-.211-.235-.292-.523-.261-.478.049-1,.725-1.528.741C458.816,1645.445,458.762,1644.758,458.417,1644.351Zm62.108,2.575c-.29.525-.324,1.3-.743,1.7-.711-.005-1.707-.247-1.571.48.073.386.574.327,1.005.436-.05.339-.1.722.13.917.516.158.64-.421,1.091-.48.433-.057,1.092.321,1.266-.218a1.365,1.365,0,0,0-.044-.611c.944,0,.731-1.431-.262-.917C521.265,1647.672,521.353,1646.511,520.525,1646.926Zm-133.948,20.731c2.806-.276,5.579-.456,8.249-.96s5.283-.9,7.856-1.4c2.471-.472,4.926-1.216,7.376-1.834,7.37-1.856,14.861-3.72,22.3-5.455-21.849,2.785-43.019,6.241-62.675,11.216C375.371,1668.732,381.041,1668.2,386.577,1667.657Zm133.162-3.84a38.254,38.254,0,0,0-3.536,1.658c-5.888,2.677-12.236,5.092-18.55,7.42-1.807.667-3.8,1.46-5.716,2.095-.3.1-1.785.352-1.616,1,.09.344.606.214.917.132a19.189,19.189,0,0,0,1.833-.742c.614-.239,1.257-.474,1.877-.7,7.569-2.74,15.2-5.636,22.128-8.9a22.035,22.035,0,0,0,3.449-1.746A.945.945,0,0,0,519.739,1663.817Zm-92.573,6.372a28.258,28.258,0,0,0,4.714,1.353c4.916,1.174,9.843,2.183,15.015,3.143,5.863,1.086,11.736,2.442,17.458,3.666.506.107,2.4.594,2.4-.131,0-.35-.758-.471-1.092-.568a137.439,137.439,0,0,0-17.894-3.71c-1-.148-2.01-.2-3.056-.305-.769-.078-1.487-.31-2.181-.437-5.271-.962-10.381-2.022-15.452-3.142A.122.122,0,0,0,427.166,1670.189Zm-32.122-.044c-.818-.2-.444,1.029-.611,1.7a1.939,1.939,0,0,0-1.615.436v.392a.983.983,0,0,0,.873.263,5.093,5.093,0,0,0-.655,1.309c.035.01.051.037.044.087.727.325.94-.556,1.266-.917.65.209.674-.533.916-.873.343.022.4.33.829.263a.118.118,0,0,1,.131-.087c.239-.441-.062-.907-.218-1.222.1-.244.431-.416.262-.787a.657.657,0,0,0-.7.175C395.375,1670.634,395.327,1670.214,395.044,1670.145Zm61.322,2.008c2.9,1.172,5.806,2.224,8.772,3.273a13.287,13.287,0,0,0,3.143.917c-.145-.5-.767-.572-1.179-.742-3.347-1.374-7.031-2.75-10.518-3.928C456.434,1671.757,456.43,1671.984,456.366,1672.153Zm107.978,0c-.7-.132-1.206.6-1.44,1.222.006.154.164.157.262.219-.017.48-1.155.175-1.223.567-.044.253.179.309.481.349-.118.216-.375.3-.349.655.507.4.721-.426,1.135-.525.534-.127,1.151.309,1.658-.087A4.487,4.487,0,0,0,564.344,1672.153Zm-26.8,1.832c-7.774.507-14.727,1.351-22,2.314-6.043.8-12.244,1.662-18.157,2.663-.747.126-1.91.248-3.143.348-.8.067-2.6.048-2.574.917.029.989,2.063.682,2.837.611a24.977,24.977,0,0,0,3.1-.523c2.117-.441,4.2-.762,6.241-1.047,4.371-.614,8.365-1.2,12.7-1.834,7.315-1.065,15.069-1.847,22.914-2.532.591-.051,3.041-.029,3.012-.654-.023-.5-1.084-.5-1.615-.48C539.772,1673.8,538.67,1673.912,537.546,1673.985Zm-189.814.35c.116-.115.657-.56.219-.436-1.341.38-2.788.469-4.1.829-1.236.338-2.45.716-3.666,1.091-7.275,2.247-14.583,4.639-21.386,7.289,7.015-.548,13.278-2.371,19.553-3.928,6.3-1.564,12.52-3.107,18.941-4.67-2.855.169-6.006.474-8.86.611-.376.018-.894.124-1.134-.219A1.357,1.357,0,0,1,347.732,1674.335Zm146.867,2.226c-.482.121-1.047.27-1.615.436-.34.1-1.408.293-1.441.655-.017.211.222.406.437.436a5.042,5.042,0,0,0,1.7-.479c.58-.187,1.155-.311,1.7-.481.527-.162,1.081-.426,1.571-.611s1.319-.291,1.135-.872H498C497.064,1675.972,495.873,1676.243,494.6,1676.561Zm-31.468,3.055c-2.838-.215-6.2-.652-8.948-.261.652.634,2.3.385,3.448.435a44.006,44.006,0,0,1,5.107.569c1.611.258,3.11.889,4.756.828.238-.409-.2-.634-.042-.916A13.6,13.6,0,0,0,463.131,1679.616ZM566.309,1691.4c-2.39-.6-4.959-.816-7.377-1.221-14.037-2.357-28.562-4.324-43.209-6.024-5.09-.59-10.28-1.346-15.32-1.92-.752-.086-1.56-.066-2.268-.218a8.265,8.265,0,0,0-1.135-.394c-.669-.073-1.536.113-2.183.088-.44-.017-1.269-.356-1.178.306.072.527,1.75.374,2.181.392,2.541.112,4.806.526,6.984.83,9.255,1.29,18.7,2.144,27.976,3.317,10.853,1.373,21.331,2.96,31.775,4.67a20.192,20.192,0,0,0,4.495.568C566.974,1691.46,566.547,1691.46,566.309,1691.4Zm-129.365-5.848a26.614,26.614,0,0,1,3.011-.262c.174.009.319.095.48.087.492-.021,1.04-.21,1.571-.261,7.509-.719,14.573-1.407,22.216-1.833.638-.036,3.084.1,3.142-.568.076-.863-1.494-.7-1.964-.655-6.423.595-13.409.9-19.858,1.659-1.253.147-2.47.445-3.711.611-1.973.265-4.007.368-5.935.524-.572.045-1.291-.011-1.7.48,0,.1-.339.233-.131.261A7.647,7.647,0,0,0,436.944,1685.552Zm60.841-.262a17.854,17.854,0,0,0-5.762-1c-.162,0-.328.049-.348.219a3.015,3.015,0,0,0,1.614.567c1.486.3,3.217.494,4.583.873.236.066.667.285.83-.043C498.5,1685.589,498,1685.586,497.785,1685.29Zm-30.857-.611c-2.735.528-5.568,1.789-8.424,2.488a7.22,7.22,0,0,0-1.266.305c-.343.19.048.125-.261.306a7.436,7.436,0,0,1-1.135.349c-2.679.826-5.512,1.577-8.118,2.313-3.23.913-6.955,1.893-9.951,2.968-1.691.607-3.509.925-5.237,1.4-4.824,1.316-9.594,2.681-14.229,4.06-.388.115-.924.122-1.178.524,1,.655,2.143.005,3.1-.263,14.616-4.095,29.641-7.633,43.514-12.526a12.811,12.811,0,0,1,3.143-.873c.166-.007.31.1.524.087a1.3,1.3,0,0,0,1.31-.873A2.59,2.59,0,0,0,466.928,1684.679Zm-36.357.524c-6.155.453-12.633,1.021-18.942,1.615a167.631,167.631,0,0,0-16.978,2.269c-.288.058-.792.01-.916.393.6.555,1.453.161,2.138.043,10.937-1.865,22.994-2.427,34.655-3.491a4.961,4.961,0,0,0,2.313-.437C432.584,1684.968,431.226,1685.155,430.571,1685.2Zm68.479,1c.042.47.76.281,1.135.3a11.866,11.866,0,0,1,1.485.393c1.012.26,2.01.553,2.924.829.478.145,1.01.471,1.4.218.025-.333-.362-.322-.567-.393-1.191-.412-2.436-.795-3.667-1.134a10.577,10.577,0,0,0-1.483-.437,3.8,3.8,0,0,1-1.048-.086C499.085,1686.006,499.034,1686.016,499.05,1686.207Zm20.252,8.685c-4.286-1.715-8.742-2.992-13.4-4.365-5.259-1.549-10.725-3.217-15.8-4.539a.4.4,0,0,0-.219,0c-.185.4.367.446.567.524.916.357,1.915.723,2.882,1,8.6,2.495,17.545,4.9,25.619,7.9.595.22,1.29.667,1.963.393A3.263,3.263,0,0,0,519.3,1694.892Zm-52.374-6.9c-2.867,1.681-5.7,3.479-8.424,5.194a4.678,4.678,0,0,0-1.31,1c.918.441,1.564-.177,2.314-.611,2.986-1.726,5.871-3.427,8.773-5.107.455-.263,1.051-.519,1.266-1.047C468.59,1686.7,467.734,1687.523,466.928,1688Zm-36.1,20.645c-.58-.04.033,1.375-.262,1.789-.087-.576-1.127-.866-1.135-.219-.005.429.8.626.786,1.354-.008.5-.471.692-.087.96a.748.748,0,0,0,.479,0c.185.238.313.531.787.48.161-.1.073-.312.131-.437.7-.021,2.21.261,2.226-.436.018-.8-2.082-.277-2.357-1.048.1-.392.775-1.333.131-1.4-.3-.03-.255.255-.481.218C430.983,1709.459,431.226,1708.667,430.833,1708.641Zm91.874,8.292c-.765-.522-.706,1.418-1.092,1.833a1.714,1.714,0,0,0-1.484-.523c-.4.759.488,1.18,1.135,1.309-.328.3-.449,1.289.175,1.222.327-.035.376-.6.829-.612.212.117.708.289.96.088.085-.117.027-.381.044-.567a11.269,11.269,0,0,0,1.615-.7c.048-.34-.153-.429-.306-.567a5.043,5.043,0,0,0-1.44.261C522.9,1718.142,523.124,1717.217,522.707,1716.933Zm-126.747.13c-.425.175-.589-.405-.916-.042.1.9,1.226,1.013,1.178,1.92a4.894,4.894,0,0,0-1.4.349c-.126.079-.38.354-.349.523.127.725,1.3-.146,1.789-.218a3.942,3.942,0,0,1,.393.044c.312-.014.65-.132,1-.131.547,0,.977.217,1.222.087.56-.295-.274-.813-.48-.785.219.03.274-.105.305-.262.07-.2-.194-.141-.217-.349-.012-.1.2-.207.175-.393-.086-.528-.751-.08-1.005.132A11.172,11.172,0,0,1,395.96,1717.063Zm156.862,12.266c-.816.029.2.9.393,1.091a5.052,5.052,0,0,1,.785.785c-.627.063-1.525-.016-1.615.481a.761.761,0,0,0,.393.654c.118.053.254-.027.437,0,.224.033.357.143.523.13.481-.034.861-.471,1.223-.523.344.194.471.6.96.654.264-.128.267-.518.436-.741.4-.163,1.015.119,1.31-.087.174-.636-.685-.589-1.135-.742-.064-.334.324-.662.3-.961a1.227,1.227,0,0,0-.524-.7c-.8-.235-1.081.866-1.7,1.048C554.085,1730.432,553.255,1729.313,552.822,1729.329Zm-141.8,8.685c-.012-.25-.284-.34-.48-.525-.219-.206-.7-.655-.742-.959-.071-.554.394-.748.088-1.31-.448-.361-.792.167-1.091.349-.218-.233-.517-.556-.874-.436-.552.185-.023,1.082.043,1.528-.468.621-.29,1.333.393,1.484.188.616.273,1.833.961,1.7.563-.107.238-1.027.262-1.484C410.138,1738.624,411.045,1738.582,411.018,1738.014ZM425.508,1756a54.543,54.543,0,0,0-6.546,1.09c-2.063.57-4.067,1.109-5.98,1.7,8.742-1.559,17.407-3.195,26.231-4.67.158.018.06-.08-.044-.044C434.684,1754.666,430,1755.338,425.508,1756Zm135.17.611a4.844,4.844,0,0,0-.437.7c-.135.238-.352.544-.305.7,8.424.036,16.094-1.32,24.049-2.051Q572.157,1756.108,560.678,1756.607Zm-99.075,4.015c2.1-.237,4.146-.538,6.11-.917C465.645,1759.98,463.6,1760.271,461.6,1760.622Zm92.31,6.11a10.937,10.937,0,0,0,1.178-.174C554.713,1766.63,554.154,1766.522,553.913,1766.732Zm-124.04,12.439c2.729-.283,5.461-.562,8.161-.873a6.242,6.242,0,0,0,.524-.916h-.087C435.622,1777.995,432.689,1778.525,429.873,1779.171Zm-80.831,9.253c1.81-.416,3.605-.846,5.368-1.31.193-.021.735-.123.611-.174C352.988,1787.4,350.935,1787.83,349.042,1788.424Z" fill="#333" fill-rule="evenodd"/>
      <path id="Path_588" data-name="Path 588" d="M485.87,1715.232h.393c-.152.418-.752.759-1.048,1.177C485.294,1716.052,485.7,1715.643,485.87,1715.232Z" fill="#333" fill-rule="evenodd"/>
      <path id="Path_589" data-name="Path 589" d="M478.188,1728.281c-.315.266-.75.414-1.091.655C477.281,1728.712,477.514,1728.158,478.188,1728.281Z" fill="#333" fill-rule="evenodd"/>
      <path id="Path_590" data-name="Path 590" d="M483.513,1728.8a8.626,8.626,0,0,1,1.266.218c-.8.424-1.686.759-2.487,1.18A10.947,10.947,0,0,1,483.513,1728.8Z" fill="#333" fill-rule="evenodd"/>
      <path id="Path_591" data-name="Path 591" d="M465.792,1730.551c.234-.334.791-.346,1.18-.524A5.15,5.15,0,0,1,465.792,1730.551Z" fill="#333" fill-rule="evenodd"/>
      <path id="Path_592" data-name="Path 592" d="M489.8,1730.376a4.115,4.115,0,0,1,.917.262c-.4.254-.941.368-1.354.611C489.368,1730.992,489.693,1730.678,489.8,1730.376Z" fill="#333" fill-rule="evenodd"/>
      <path id="Path_593" data-name="Path 593" d="M477.14,1732.689c-.069.149-.3.137-.392.263C476.706,1732.863,476.957,1732.7,477.14,1732.689Z" fill="#333" fill-rule="evenodd"/>
      <path id="Path_594" data-name="Path 594" d="M485.652,1737.271h.654c-1.342,1.772-2.811,3.417-4.19,5.151C483.163,1740.748,484.526,1739.012,485.652,1737.271Z" fill="#333" fill-rule="evenodd"/>
      <path id="Path_595" data-name="Path 595" d="M534.4,1760.665c.383-.385.9-.643,1.134-1.178,1.565-.355,3.106-.736,4.714-1.048.041.126-.144.1-.219.132C538.256,1759.283,536.189,1759.975,534.4,1760.665Z" fill="#333" fill-rule="evenodd"/>
      <path id="Path_596" data-name="Path 596" d="M540.033,1759.094c-4.782,2.769-9.771,5.331-14.577,8.075,1.784-1.43,3.791-2.777,5.762-4.19a21.452,21.452,0,0,1,1.92-1.4,12.015,12.015,0,0,1,1.7-.655C536.517,1760.321,538.191,1759.614,540.033,1759.094Z" fill="#333" fill-rule="evenodd"/>
      <path id="Path_597" data-name="Path 597" d="M529.34,1761.189c-1.813,1.049-3.817,1.923-5.761,2.838s-3.773,1.982-5.543,2.924c.056-.391.483-.516.742-.7.287-.2.553-.424.83-.612h.305c.507-.15.843-.774,1.353-.959,2.046-.741,4.341-1.465,5.936-2.75-.307-.161-.8.211-1.222.219C527.064,1761.793,528.178,1761.467,529.34,1761.189Z" fill="#333" fill-rule="evenodd"/>
      <path id="Path_598" data-name="Path 598" d="M541.038,1807.541c-1.39,1.328-3.183,2.668-4.758,4.1a4.2,4.2,0,0,0-1.615,2.053c-2.2,1.611-4.409,3.347-6.634,5.149a5.016,5.016,0,0,1-.917.742,10.636,10.636,0,0,1-2.007.131c-4.533.351-9.268.637-13.748,1.047a79.269,79.269,0,0,1-5.019-11.26c-1.477-3.917-2.964-7.842-5.893-10.388,2.135-1.72,4.3-3.411,6.416-5.15a17,17,0,0,0,1.658-.873c.474-1.564,2.076-2,2.314-3.8,1.245-1.008,2.551-1.959,3.71-3.055,3.173-1.67,6.322-3.474,9.515-5.15a3.956,3.956,0,0,0,1.221-.83c-3.276,1.506-6.2,3.213-9.34,4.889a14.228,14.228,0,0,1-3.316,1.4c-.082-.1.169-.307.3-.436a59.362,59.362,0,0,1,7.769-5.544c8.455-5.66,17.392-11.156,26.405-16.235a88.281,88.281,0,0,0,7.508,7.115c-13.045,7.346-26.342,15.164-37.71,24.484a33.734,33.734,0,0,0-3.492,3.186c-.166.181-.972,1.023-.785,1.309.238.368,1.185-.089,1.483-.261a11.505,11.505,0,0,0,1.135-.83,3.036,3.036,0,0,0,1.659-2.313c-1.244.226-1.014,2.3-2.619,2.313a18.856,18.856,0,0,1,4.321-4.233c10.821-9.017,23.817-16.04,36.357-23.351.532.331.985.763,1.571,1.179.151.108.495.255.524.35.039.13-.277.391-.306.654-.058.514.271,1.053.306,1.615-1.851.248-3.991.477-5.936.742-.582.079-1.4,0-1.528.655,2.545-.235,5.123-.435,7.681-.655-.08.36.745,1.056.743,1.353s-1.005,1-1.31,1.265a18.948,18.948,0,0,0-2.487,2.663,15.277,15.277,0,0,1-1.092,1.44,14.813,14.813,0,0,1-1.57,1.047c-.379.253-1.432.682-1.4,1.222.024.361.377.529.829.394-.807,1.168-1.8,2.289-2.749,3.4a8.677,8.677,0,0,1-.916,1.091c-.872.715-2.065,1.313-3.056,1.965-6.493,4.265-12.953,8.657-19.2,13.223-.458.336-1.059.612-1.309,1.179.33.25.788-.007,1.091-.131.99-.407,1.974-.986,2.924-1.485a78.158,78.158,0,0,0,10.868-6.676,4.336,4.336,0,0,0-1.483.872A90.365,90.365,0,0,1,526.2,1805.1c-.07-.122.254-.3.436-.436,2.957-2.2,6.21-4.288,9.3-6.415,3.319-2.288,6.783-4.421,10.083-6.634.075.077-.132.284-.262.436-1.881,2.19-3.827,4.505-5.8,6.678-2.119,2.326-4.519,4.483-6.154,7.2.244.109.477-.191.611-.306,2.781-2.417,5.326-5.151,7.987-7.812,2.409-2.41,4.738-5.137,6.983-7.813a5.1,5.1,0,0,1,2.139-1.789c-.3.644-1.723,1.5-1.048,2.444a53.948,53.948,0,0,1-6.547,6.9c-.342.3-.791.662-1.178,1.047a3.545,3.545,0,0,0-1.222,1.615c-2.723,2.7-6.11,5.422-8.773,8.468-.4.454-1.329,1.406-.654,1.877,1.535-.457,2.086-1.9,3.273-2.707.544-.724.8-1.562,1.353-2.226a36.667,36.667,0,0,1,3.667-3.448c.3-.276.59-.59.915-.872a7.3,7.3,0,0,1,.917-.829c.188-.11.451-.154.655-.263a7.017,7.017,0,0,0,2.575-2.27.741.741,0,0,0,.086-.479c2.1-2.164,4.474-4.053,6.722-6.067.116-.118.258.182.394.043.795-.6,1.5-1.3,2.355-1.832-.1.532.455,1.438.351,2.05-.094.554-1.65,1.5-2.1,1.835-2.275,1.716-4.53,3.216-6.808,4.931-2.607,1.962-5.125,3.92-7.769,5.98-.4.31-1.462,1.108-.611,1.4.394.134,1.026-.357,1.571-.7,2.927-1.838,5.513-3.816,8.205-5.848.4-.3,1.061-.55,1.091-1.135-.32-.33-.725.1-.96.262-.827.581-1.74,1.263-2.575,1.833,2.306-2.007,5.073-3.912,7.637-5.849.848-.638,1.666-1.313,2.489-1.919.112.764.4,1.574.437,2.27-.174-.008-.213-.4-.481-.437-.29-.044-.962.4-1.265.568-.846.464-1.479.867-2.314,1.351-.352.207-1.024.508-1.047.743s.286.36.262.48c-4.655,3.345-9.671,6.98-14.1,10.867-.414.365-1.666,1.265-1.658,1.877.015,1.219,1.5.195,1.92-.087C538.514,1809.249,539.951,1808.325,541.038,1807.541Zm-25.752-4.975c4.64-.351,9.277-.705,13.88-1.091C524.474,1801.773,519.576,1801.864,515.286,1802.566Z" fill="#333" fill-rule="evenodd"/>
      <path id="Path_599" data-name="Path 599" d="M526.765,1764.856c-1.316,1.094-2.77,2.06-4.191,3.1-1.395,1.022-2.772,2.1-4.189,3.143a52.88,52.88,0,0,1-4.625,2.749c-1.151.674-2.3,1.335-3.448,2.052-.349.218-.842.394-1.005.83.546.152,1.066-.266,1.528-.481.5-.233,1-.454,1.484-.655-1.374,1.028-2.713,2.09-4.146,3.056-.084-1.765-.175-3.753-.132-5.5.1-.093.123.173.218.262.891.82,2.294-.669,3.275-.7.505-.25.943-.569,1.439-.873s1.076-.462,1.528-.786c.12-.086.186-.253.306-.349a12.624,12.624,0,0,1,1.4-.829c.466-.278.946-.576,1.4-.829.981-.551,2.09-.89,3.1-1.354C522.749,1766.749,524.8,1765.834,526.765,1764.856Z" fill="#333" fill-rule="evenodd"/>
      <path id="Path_600" data-name="Path 600" d="M509.351,1771.271c-.258.455-1.09.714-1.266,1.4-.179-1.3-.044-2.924-.218-4.234,2.586-.773,5.186-1.535,7.856-2.225-1.626,1.05-3.672,2.256-5.543,3.4-.409.251-1.639.814-1.615,1.353C508.582,1771.326,508.977,1771.481,509.351,1771.271Z" fill="#333" fill-rule="evenodd"/>
      <path id="Path_601" data-name="Path 601" d="M440.61,1786.765c.6.3,1.075-.374,1.44-.654,4.811-3.7,9.323-7.743,14.185-11.479.874-.673,1.782-1.328,2.662-2.007a19.38,19.38,0,0,1,5.15-3.361c.1.18-.264.3-.437.436-2.715,2.221-5.659,4.439-8.422,6.677a126.5,126.5,0,0,0-20.034,20.252c-.877,1.119-1.7,2.257-2.532,3.492-.258.387-.687.778-.61,1.31.591.2,1.114-.312,1.527-.611a42.559,42.559,0,0,0,3.623-3.231,55.481,55.481,0,0,0,4.452-4.67,40.2,40.2,0,0,0-3.666,3.492,15.2,15.2,0,0,1-3.929,3.23,32.487,32.487,0,0,1,3.491-4.495,143.548,143.548,0,0,1,19.86-20.034c2.476-2.006,5.2-4.089,7.812-6.154a7.078,7.078,0,0,1,1.091-.872,22.968,22.968,0,0,1,2.357-.394c.082.181-.139.334-.218.437a12.226,12.226,0,0,0-1.833,3.71c-.5,1.537-.688,3.514-1.484,4.845a8.862,8.862,0,0,1-1.354,1.351c-3.221,3.023-6.786,5.931-10.081,8.774a204.953,204.953,0,0,0-26.363,27.5,49.625,49.625,0,0,0-3.4,4.67,3.353,3.353,0,0,0-.786,1.789c.417.085.76-.276,1.047-.48a26.319,26.319,0,0,0,2.663-2.1c1.1-1.012,2.06-2.191,3.1-3.229,5.3-5.3,10.59-10.493,16.8-14.927a23.336,23.336,0,0,1,3.885-2.445,29.785,29.785,0,0,1-3.8,4.191c-3.97,3.968-8.047,7.919-11.829,12.133a218.152,218.152,0,0,0-14.272,17.632c-1.917.324-3.817.665-5.761.961q9.393-19.915,19.64-38.976a15.983,15.983,0,0,0,1.921-.915c.5-.286,1.429-.714,1.441-1.354.014-.848-1.2-.987-1.834-.436.7-1.547,1.68-3.282,2.576-4.932a10.17,10.17,0,0,1,.872-1.615c.4-.457,1.064-.642,1.483-1.047a6.954,6.954,0,0,0,2.838-1.529c.729-.516,1.435-1.049,2.05-1.527,2.746-2.123,5.74-3.7,8.73-5.587.677-.427,1.568-.948,2.226-1.352a5.1,5.1,0,0,1,.568-.35c.318-.145-.06.089-.175.175-5.4,4.057-10.652,8.435-15.886,12.745C441.1,1786.045,440.589,1786.283,440.61,1786.765Z" fill="#333" fill-rule="evenodd"/>
      <path id="Path_602" data-name="Path 602" d="M516.6,1767.78c-.289.5-1.1.845-1.616,1.266A19.915,19.915,0,0,1,516.6,1767.78Z" fill="#333" fill-rule="evenodd"/>
      <path id="Path_603" data-name="Path 603" d="M484.735,1771.053c.059.169-.289.326-.48.48-1.332,1.081-2.841,2.342-4.277,3.361-.02.013-.078.039-.088.044-.726.4-1.57.664-2.356,1s-1.576.646-2.357,1.005C478.086,1774.878,480.978,1772.418,484.735,1771.053Z" fill="#333" fill-rule="evenodd"/>
      <path id="Path_604" data-name="Path 604" d="M455.667,1771.184c-1.643,1.209-3.393,2.309-5.019,3.536-.049-.009-.024-.045,0-.045A14.281,14.281,0,0,1,455.667,1771.184Z" fill="#333" fill-rule="evenodd"/>
      <path id="Path_605" data-name="Path 605" d="M515.9,1774.37a13.107,13.107,0,0,1,4.191-2.662c.051.071-.231.248-.394.348C518.486,1772.807,517.075,1773.592,515.9,1774.37Z" fill="#333" fill-rule="evenodd"/>
      <path id="Path_606" data-name="Path 606" d="M492.852,1772.581a17.614,17.614,0,0,1,2.532,1.091c-2.54,1.053-5.212,1.973-7.769,3.012C489.156,1775.285,491.387,1774.2,492.852,1772.581Z" fill="#333" fill-rule="evenodd"/>
      <path id="Path_607" data-name="Path 607" d="M449.207,1773.628c-1.967,1.719-4.272,3.569-6.285,5.456-.146.136-.3.268-.435.393-.114.1-.227.282-.393.262.6-.916,1.119-1.908,1.7-2.838C445.59,1775.8,447.329,1774.644,449.207,1773.628Z" fill="#333" fill-rule="evenodd"/>
      <path id="Path_608" data-name="Path 608" d="M478.145,1776.291c-5.8,4.475-11.328,9.214-16.716,14.1.922-1.943,2.065-4.045,3.011-6.11,2.25-1.36,4.33-2.9,6.46-4.408a18.9,18.9,0,0,1,3.448-1.964C475.58,1777.368,476.823,1776.828,478.145,1776.291Z" fill="#333" fill-rule="evenodd"/>
      <path id="Path_609" data-name="Path 609" d="M441.962,1780.131c.125.265-.229.325-.3.524A.708.708,0,0,1,441.962,1780.131Z" fill="#333" fill-rule="evenodd"/>
      <path id="Path_610" data-name="Path 610" d="M473.867,1782.052a14.478,14.478,0,0,1-1.659,1.309A10.459,10.459,0,0,1,473.867,1782.052Z" fill="#333" fill-rule="evenodd"/>
      <path id="Path_611" data-name="Path 611" d="M510.312,1787.42c.093.055-.109.179-.088.306.148.444.825.1,1.135.044a3.741,3.741,0,0,1-2.313,1.134v-.48C509.477,1788.1,509.9,1787.766,510.312,1787.42Z" fill="#333" fill-rule="evenodd"/>
      <path id="Path_612" data-name="Path 612" d="M419.616,1806.363a20.428,20.428,0,0,1-.96,2.007,15.312,15.312,0,0,1-.96,1.92,9.178,9.178,0,0,1-1.136,1.048c-1.087,1.033-2.225,2.183-3.272,3.23-1.1,1.1-2.125,2.175-3.274,3.229-.357.329-.9.6-1,1.136.454.285.825-.3,1.092-.524,2.15-1.83,4.17-3.928,6.241-5.893.117-.11.233-.341.436-.3-1.08,2.014-1.962,4.1-3.142,6.023a7.8,7.8,0,0,0-1.091,1.964c.261.131.474-.208.61-.349a19.127,19.127,0,0,0,1.616-1.745c.53-.736.913-1.661,1.44-2.489,1.016-1.594,2.025-3.137,3.055-4.757a18.763,18.763,0,0,1,1.528-2.358c.448-.5,1.065-.935,1.571-1.4,1.555-1.411,3.139-2.753,4.67-4.146-1.967,4.332-4.131,8.468-6.329,12.57A4.088,4.088,0,0,0,422.06,1814a73.443,73.443,0,0,0,5.194-9.516c.481-.97.962-1.992,1.441-3.01.149-.318.413-.623.523-.918.068-.179.03-.382.088-.567.416-1.34,1.255-2.469,1.4-3.971.707-.442,1.345-.955,2.1-1.353-6.362,12.463-12.651,25-18.507,37.971-6.844,1.157-13.554,2.45-20.251,3.754,6.479-.665,13.091-1.575,19.6-2.357-.855,1.967-1.757,3.888-2.619,5.848-8.545,1-16.95,2.139-25.576,3.055-.047-.258.227-.4.349-.568,4.247-5.885,9-11.557,13.181-17.631a7.825,7.825,0,0,1,.873-1.223,11.168,11.168,0,0,1,1.528-.917c.4-.248,1.325-.643,1.265-1.178-.078-.7-1-.268-1.265.044.82-1.448,2.006-2.911,3.011-4.321a1.157,1.157,0,0,0,1.4-1.528,2.538,2.538,0,0,1,.525-.654c.108-.118.377-.564.523-.612s.345.172.48.131c.164-.048.632-.674.873-.915,2.029-2.03,4.3-4.022,6.415-5.893,2.583-2.28,5.225-4.347,7.726-6.372a3.355,3.355,0,0,1-1.047,1.571c-.081.185.257.175.087.305-.455.661-.652,1.495-1.135,2.182a9.825,9.825,0,0,1-.829.83c-7.191,7.668-14.584,15.264-21.168,23.525-.487.611-.965,1.247-1.44,1.877a6.691,6.691,0,0,0-1.222,1.964c.407.029.685-.371.917-.611a29.581,29.581,0,0,0,2.224-2.575c.944-1.244,1.591-2.654,2.576-3.841C407.07,1819.556,413.41,1812.946,419.616,1806.363Z" fill="#333" fill-rule="evenodd"/>
      <path id="Path_613" data-name="Path 613" d="M541.518,1806.145c4.083-3.537,8.838-6.811,13.181-10.258a.624.624,0,0,0,.3.481,2.5,2.5,0,0,0,1.266-.262,12.941,12.941,0,0,1,.525,2.051c-1.955,1.376-3.995,2.67-6.023,3.972-.025.1-.131.1-.044,0,1.308-.92,2.482-1.936,3.8-3.012.365-.3,1.1-.633,1.091-1.179a.6.6,0,0,0-.567-.611c-.5-.041-1.242.691-1.747,1.048C549.588,1801.006,545.086,1803.7,541.518,1806.145Z" fill="#333" fill-rule="evenodd"/>
      <path id="Path_614" data-name="Path 614" d="M424.286,1797.677c0,.239-.231.267-.349.48-.177.321-.2.8-.437,1.047a6.937,6.937,0,0,1-1.178.743c-1.117.71-2.311,1.6-3.4,2.269.88-.956,1.842-1.865,2.793-2.837a7.659,7.659,0,0,1,.874-.96C423.093,1798.074,423.742,1798.037,424.286,1797.677Z" fill="#333" fill-rule="evenodd"/>
      <path id="Path_615" data-name="Path 615" d="M424.854,1800.426c.052-.212-.174-.147-.175-.305a4.618,4.618,0,0,0,.262-.611c.764-.37,1.4-.872,2.182-1.222-.777.964-1.629,1.951-2.4,3.012-.427.586-.695,1.149-1.4,1.44C423.728,1802.035,424.4,1801.222,424.854,1800.426Z" fill="#333" fill-rule="evenodd"/>
      <path id="Path_616" data-name="Path 616" d="M556.968,1798.855c.019.374.131.655.175,1-4.045,1.921-7.679,4.251-11.436,6.46C549.363,1803.761,553.169,1801.123,556.968,1798.855Z" fill="#333" fill-rule="evenodd"/>
      <path id="Path_617" data-name="Path 617" d="M406.479,1814.262c.978-1.632,2.071-3.225,3.1-4.976.337-.574.585-1.239.96-1.745a9.845,9.845,0,0,1,1.265-1.178c1.253-1.126,2.745-2.251,4.016-3.317a32.056,32.056,0,0,1,5.674-4.06,18.425,18.425,0,0,1-2.183,2.4,19.548,19.548,0,0,1-2.4,2.269c-1.375.97-2.774,1.868-4.1,2.925-.389.309-1.005.57-1.092,1.134.387.326.761-.185,1.048-.393.343-.247.725-.476,1-.7C411.449,1809.107,408.761,1811.6,406.479,1814.262Z" fill="#333" fill-rule="evenodd"/>
      <path id="Path_618" data-name="Path 618" d="M418.525,1800.208c-1.82,1.716-4.121,3.329-6.023,5.106,1.3-1.666,3.265-3.048,4.757-4.67A6.979,6.979,0,0,0,418.525,1800.208Z" fill="#333" fill-rule="evenodd"/>
      <path id="Path_619" data-name="Path 619" d="M493.944,1800.95c.452.863-.053,1.19-.61,1.79-.822.883-1.66,1.845-2.4,2.7-1.826,2.122-3.411,4.354-5.631,5.981-.052.06-.017,0,0-.044a76.2,76.2,0,0,1,5.238-7.334C491.523,1802.834,492.3,1801.475,493.944,1800.95Z" fill="#333" fill-rule="evenodd"/>
      <path id="Path_620" data-name="Path 620" d="M494.249,1802.653c-.053.338.151.658.088.917-.088.36-.8.752-1.091,1-.445.377-.812.655-1.135.916-.052.062-.016,0,0-.044A34.856,34.856,0,0,1,494.249,1802.653Z" fill="#333" fill-rule="evenodd"/>
      <path id="Path_621" data-name="Path 621" d="M418.395,1803.612c-3.088,2.661-6.383,5.49-9.341,8.425a22.045,22.045,0,0,1,2.1-2.315q1.113-1.112,2.225-2.224A23.593,23.593,0,0,1,418.395,1803.612Z" fill="#333" fill-rule="evenodd"/>
      <path id="Path_622" data-name="Path 622" d="M568.011,1806.668c-1.742,1.823-3.875,3.866-5.631,5.674.246-.65.079-1.292.35-1.877.152-.328.928-.765,1.265-1C565.32,1808.528,566.836,1807.577,568.011,1806.668Z" fill="#333" fill-rule="evenodd"/>
      <path id="Path_623" data-name="Path 623" d="M485.7,1811.906c-.145.248-.388.4-.48.7.377-.084.585-.455.83-.7.732-.734,1.38-1.635,2.181-2.357a8.317,8.317,0,0,1-.741,1.265,9.211,9.211,0,0,1-.83,1.223,12.441,12.441,0,0,1-1.527,1.091c-.508.38-1.016.714-1.484,1.091A5.9,5.9,0,0,1,485.7,1811.906Z" fill="#333" fill-rule="evenodd"/>
      <path id="Path_624" data-name="Path 624" d="M557.928,1813.7c-.268.555-.86.839-1.308,1.22-2.746,2.335-5.517,4.8-8.206,7.29a15.765,15.765,0,0,1-1.353,1.222,17.8,17.8,0,0,1-1.877,1.047,112.015,112.015,0,0,0-12.526,7.856C540.614,1825.827,549.289,1819.662,557.928,1813.7Z" fill="#333" fill-rule="evenodd"/>
      <path id="Path_625" data-name="Path 625" d="M481.942,1815.354c.113.116-.159.217-.218.305C481.643,1815.575,481.915,1815.473,481.942,1815.354Z" fill="#333" fill-rule="evenodd"/>
      <path id="Path_626" data-name="Path 626" d="M557.667,1815.746a12.018,12.018,0,0,1-.437,2.183c-.242.471-.827.661-1,1.134-1.708.751-3.426,1.492-5.063,2.313C553.165,1819.537,555.523,1817.444,557.667,1815.746Z" fill="#333" fill-rule="evenodd"/>
      <path id="Path_627" data-name="Path 627" d="M504.812,1817.186c.073.29.25.478.306.786-1.4.665-2.709,1.423-4.016,2.182C502.211,1819.212,503.52,1818.093,504.812,1817.186Z" fill="#333" fill-rule="evenodd"/>
      <path id="Path_628" data-name="Path 628" d="M385.747,1835.518c.063.115-.212.231-.393.349-1.176.768-2.5,1.669-3.666,2.488-.811.569-2.046,1.456-3.011,2.269-.318.268-1.234,1.139-.48,1.4.358.122.787-.271.959-.393,3.4-2.407,6.645-4.608,10.127-7.071.329-.233,2.016-1.3,1-1.7-.463-.182-.991.335-1.4.524-3.126,1.468-6.222,3.156-9.122,4.626,4.89-3.579,10.125-7.172,15.144-10.824a13.6,13.6,0,0,0,2.1-1.615c.253-.285.337-.718.741-.828a22.426,22.426,0,0,1-1.7,2.268c-4.154,5.213-8.72,10.272-12.308,16.106-4.168.34-8.793,1.013-13.617.786-1.469-.07-3.013-.066-4.015-.742.487-1.5,1.187-2.96,1.833-4.452a5.1,5.1,0,0,1,.654-1.4,6.765,6.765,0,0,1,2.139-.83c.776-.223,1.57-.384,2.313-.61.368-.737.774-1.643,1.136-2.488a3.348,3.348,0,0,1,.348-.83,8.119,8.119,0,0,1,1.441-.786c3.338-1.749,6.916-3.428,10.3-5.018,3.456-1.623,7.11-3.146,10.432-4.932.485-.262,1.019-.476,1.44-.742.153-.1.248-.284.393-.393.325-.248.774-.434,1.134-.655,1.041-.637,2.125-1.4,3.186-2.051a11.406,11.406,0,0,1-1.4,2.007c-.185.212-.464.364-.567.568-.061.121-.03.316-.087.436a8.438,8.438,0,0,1-1.265,1.571,78.722,78.722,0,0,1-7.6,4.06,7.938,7.938,0,0,0-1.135.523c-.152.109-.245.312-.393.437a14.226,14.226,0,0,1-1.789,1c-3.924,2.348-8.206,4.892-12.352,6.941-.145-.221.729-.358.48-.83-.635-.087-.961.461-1.483.873-.186.147-1.377.764-1.266,1.266s.973.073,1.178,0a56.618,56.618,0,0,0,7.944-3.842c3.052-1.678,5.845-3.318,8.6-4.887-4.556,3.441-9.849,6.758-14.447,10.518-.441.362-1.815,1.267-1.614,1.833.207.587,1.02-.024,1.265-.174A100.114,100.114,0,0,1,385.747,1835.518Z" fill="#333" fill-rule="evenodd"/>
      <path id="Path_629" data-name="Path 629" d="M572.288,1821.769c-3.011,2.121-6.268,4.3-9.34,6.46-.108.077-.566.4-.524.262a81,81,0,0,0,6.765-5.893,5.38,5.38,0,0,1,.96-.829C570.906,1821.56,571.827,1821.943,572.288,1821.769Z" fill="#333" fill-rule="evenodd"/>
      <path id="Path_630" data-name="Path 630" d="M477.883,1824.432c.321.016.525-.086.829-.088-.641.814-1.365,1.545-1.964,2.4A24.839,24.839,0,0,1,477.883,1824.432Z" fill="#333" fill-rule="evenodd"/>
      <path id="Path_631" data-name="Path 631" d="M569.145,1827.836a5.191,5.191,0,0,1-.567,1.309,6.423,6.423,0,0,1-.742.045c-.042-.19.4-.443.61-.655C568.689,1828.292,568.93,1828.024,569.145,1827.836Z" fill="#333" fill-rule="evenodd"/>
      <path id="Path_632" data-name="Path 632" d="M565,1832.244c-1.461,1.424-3.071,2.841-4.669,4.278a6.22,6.22,0,0,1-.654.61c.042-.01.418-.462.566-.61,1.046-1.046,2.024-2,3.143-3.055.331-.313.872-1.124,1.223-1.223C564.713,1832.214,564.9,1832.267,565,1832.244Z" fill="#333" fill-rule="evenodd"/>
      <path id="Path_633" data-name="Path 633" d="M478.363,1771.359h-.132c1.4-.141,2.941-.522,4.409-.742-1.314.752-2.6,1.529-3.971,2.226-.082.063-.007.285-.088.348-2.9,1.638-5.51,3.57-8.379,5.239-.146.075-.2-.022-.393,0a13.568,13.568,0,0,1-1.659,1.265,2.164,2.164,0,0,1,.786-1.222,72.69,72.69,0,0,1,5.324-5.019,21.461,21.461,0,0,1,2.226-1.876,10.244,10.244,0,0,1,1.31-.568c.909-.385,1.64-.679,2.662-1.092a5.909,5.909,0,0,1,1.352-.524c.69-.027,1.364.539,2.052.524a9.515,9.515,0,0,1-2.661.743C480.25,1770.876,479.264,1771.142,478.363,1771.359Z" fill="#333" fill-rule="evenodd"/>
      <path id="Path_634" data-name="Path 634" d="M448.553,1803.525c5.535-.545,11.155-1.385,16.8-1.964-1.694,3.236-3.54,6.664-5.237,10.039a5.984,5.984,0,0,1-1.615,2.269c.163.164.439-.358.524-.13-2.19,4.314-4.351,8.655-6.329,13.18-7.249.927-14.449,1.9-21.517,3.012a13.575,13.575,0,0,1,1.047-1.833c.358-.573.969-1.172.83-1.921-.622-.033-1.025.484-1.441.829-.857.718-1.617,1.374-2.487,2.226-.37.362-.79,1.008-1.178,1.18a6.977,6.977,0,0,1-1.4.218c-1.345.211-2.731.415-4.1.654,7.78-11.217,16.888-21.122,26.406-30.64,1-1,2.023-2.032,2.967-3.142.287-.337.731-.709.7-1.222-.374-.279-.771.114-1.048.263a54.912,54.912,0,0,0-6.372,4.363,115.422,115.422,0,0,0-13.225,11.305c-1.92,1.92-3.761,3.891-5.717,5.8-.083.081-.2.251-.35.219a109.144,109.144,0,0,1,8.643-11.043,259.655,259.655,0,0,1,29.984-28.937c-2.261,5.115-4.475,10.046-6.941,15.016a16.2,16.2,0,0,0-1.57,3.927c-.09.41-.378.984-.044,1.4a5.135,5.135,0,0,0,1.353-1.221,9.171,9.171,0,0,0,1.179-1.4c.432-.719.674-1.59,1.178-2.313a16.178,16.178,0,0,1,2.576-2.531c5.469-4.784,10.87-9.424,16.584-14.053.469-.379.963-.748,1.44-1.136a12.785,12.785,0,0,1,1.4-1.133c.71-.413,1.508-.527,2.139-.918.121.064-.148.257-.261.349-2.088,1.686-4.193,3.606-6.46,5.151-1.222.831-2.462,1.673-3.666,2.531a21.489,21.489,0,0,0-3.4,2.75c.041.177.18.256.436.218-3.127,2.728-6.5,5.191-9.732,7.987-.386.333-1.265.963-1.091,1.309.2.4.843-.157.96-.261,3.027-2.695,6.264-5.016,9.427-7.551.551-.441,1.119-.923,1.7-1.4a16.957,16.957,0,0,1,1.7-1.353c.7-.423,1.577-.719,2.356-1.091,2.274-1.082,4.777-2.265,7.027-3.274-.16.289-.491.422-.742.612-3.493,2.63-7.072,5.371-10.606,8.074-.541.414-1.133.789-1.614,1.222-.162.145-.237.375-.393.524-.494.469-1.181.819-1.745,1.266-.28.22-.54.49-.829.7-.253.18-.72.3-.7.7.438.266.967-.319,1.31-.567,1.212-.88,2.3-1.921,3.535-2.837,4.427-3.287,8.818-6.707,13.4-9.995a11.914,11.914,0,0,1,1.222-.872c.807-.425,1.774-.693,2.662-1.048,1.761-.7,3.551-1.35,5.369-2.007a13.215,13.215,0,0,1,2.75-.83c-2.105,1.4-4.452,2.649-6.678,4.016a109.332,109.332,0,0,0-15.45,11.173c-.361.319-.852.808-1.353,1.309-.346.345-1.183,1.143-1.047,1.615.21.73,2.009-.112,2.269-.218a14.562,14.562,0,0,0,2.007-.961,19.856,19.856,0,0,0,3.492-2.445c-.828.361-1.618.982-2.532,1.441a5.428,5.428,0,0,1-2.967.873,8.074,8.074,0,0,1,2.312-2.619,84.027,84.027,0,0,1,8.206-6.459c3.887-2.668,8.041-5.023,12.09-7.507a10.8,10.8,0,0,0,3.666,1.4,6.292,6.292,0,0,0,1.528.13c.507-.09.7-.662,1.178-.873a8.73,8.73,0,0,0-3.579-3.012,23.623,23.623,0,0,1,1.57-1.963c1.417-.228,2.7-.587,4.016-.916.115.131-.241.246-.391.349-.505.341-1.072.767-1.572,1.178a6.413,6.413,0,0,0-1.746,1.921c.3.027.542-.206.785-.35s.518-.27.743-.436c.792-.586,1.37-1.5,2.181-1.877-.413,4.916-1.5,9.558-1.046,15.057-4.505,3.195-8.744,6.595-13.051,9.995-.72.57-1.47,1.109-2.225,1.615a17.145,17.145,0,0,0-2.314,1.528c5.02-2.527,8.989-6.211,13.312-9.514.718-.549,1.45-1.071,2.182-1.615a13.491,13.491,0,0,1,2.183-1.529,12.092,12.092,0,0,0,.262,2.009c-.31.516-1.345.73-1.746,1.352a2.283,2.283,0,0,0-.219,1.528c.2.669,1.084.711,2.008.742.1.181-.166.308-.261.393-2.1,1.871-4.849,3.4-6.9,5.325-.295-.2-.453-.536-.743-.742.4-.285.963-.4,1.18-.873-.652-.153-1.06.45-1.573.654-.539.218-1.168.3-1.745.481-3.735,1.148-7.767,2.629-12.307,3.011a8.361,8.361,0,0,0,2.007-1.7,3.135,3.135,0,0,0-1.4.393c-.462.183-.934.376-1.4.568a26.635,26.635,0,0,1-2.75,1.135c-1.227.348-2.553.155-3.927.479-.073-.142.174-.216.262-.3a1.372,1.372,0,0,0,.13-1.7c-.4-.618-1.219-.955-1.7-1.659-.56-.815-.195-1.648-.785-2.532a11.843,11.843,0,0,0-2.14,1.265,14.594,14.594,0,0,0-2.138,1.4,9.721,9.721,0,0,0-1.439,2.269c-.445.781-.856,1.582-1.31,2.358C459.771,1802,454.187,1802.787,448.553,1803.525Z" fill="#333" fill-rule="evenodd"/>
      <path id="Path_635" data-name="Path 635" d="M491.85,1826.439c.821.066,1.775-.116,2.662-.13.031.847-.042,1.985,0,2.967a4.819,4.819,0,0,1,.042,1.092c-.118.568-1.387,1.666.045,1.658.079,1.958.149,3.924.306,5.805-7.548.226-15.223.565-22.783,1-.083-.162.11-.289.174-.394,2.881-4.631,5.668-9.634,8.467-14.4,4.027-.5,7.809-.975,11.916-1.4.073.088-.19.225-.349.349a21.121,21.121,0,0,0-3.143,2.706c.526.1.986-.354,1.4-.612,1.277-.8,2.587-1.738,3.884-2.532.1,1.121.015,2.431.044,3.623C493.65,1826.29,492.759,1826.375,491.85,1826.439Z" fill="#333" fill-rule="evenodd"/>
    </g>
  </g>
</svg>
